<?xml version="1.0" encoding="UTF-8"?>
<svg xmlns="http://www.w3.org/2000/svg" xmlns:xlink="http://www.w3.org/1999/xlink" id="Calque_1" data-name="Calque 1" viewBox="0 0 1001.45 595.28">
  <defs>
    <style>.cls-1,.cls-19,.cls-20,.cls-21,.cls-22,.cls-23,.cls-6,.cls-7{fill:none;}.cls-2{fill:#eee;}.cls-3{fill:#585961;}.cls-4{fill:#dadada;}.cls-5{fill:#222831;}.cls-6{stroke:#fff;}.cls-13,.cls-19,.cls-20,.cls-21,.cls-22,.cls-23,.cls-6,.cls-7{stroke-miterlimit:10;}.cls-13,.cls-19,.cls-20,.cls-21,.cls-22,.cls-7{stroke:#f7a521;}.cls-13,.cls-7{stroke-width:2px;}.cls-8{fill:#00aeb5;}.cls-9{fill:#b2b2b2;}.cls-10{fill:#fff;}.cls-11{fill:#1d1d1b;}.cls-12{fill:#f7a521;}.cls-13,.cls-24{fill:#f6f6f6;}.cls-14{fill:#134177;}.cls-15{fill:#56bcec;}.cls-16{clip-path:url(#clip-path);}.cls-17{fill:#254880;}.cls-18{fill:#312783;}.cls-19,.cls-20,.cls-21,.cls-22{stroke-width:5px;}.cls-20{stroke-dasharray:7.61 7.61;}.cls-21{stroke-dasharray:8.63 8.63;}.cls-22{stroke-dasharray:8.27 8.27;}.cls-23{stroke:#00aeb5;stroke-width:3px;}.cls-25{fill:#010101;}</style>
    <clipPath id="clip-path">
      <rect class="cls-1" x="545.75" y="247.87" width="57.25" height="20.45"></rect>
    </clipPath>
  </defs>
  <g id="Fond">
    <rect class="cls-2" x="-8" y="-9" width="856" height="613"></rect>
  </g>
  <g id="Carte">
    <polygon class="cls-3" points="41.72 -1.8 36.17 -3.99 45.57 16.92 53.16 11.61 47.89 4.51 41.72 -1.8"></polygon>
    <polygon class="cls-3" points="195.56 313.84 193.32 310.63 186.65 312.43 185.15 312.07 179.98 314.47 177.62 318.1 179.36 321.37 188.5 325.2 195.83 325.3 202.88 319.31 202.68 317.12 195.56 313.84"></polygon>
    <polygon class="cls-3" points="407.6 125.63 398.87 109.54 388.59 100.91 379.4 96.34 364.09 94.27 348.83 95.61 338.58 95.78 331.36 105.2 324.27 110.69 320.34 104.92 312.05 102.25 304.31 100.23 304.25 99.5 310.2 89.46 317.29 83.97 325.73 74.43 330.05 67.95 330.99 56.41 327.69 49.36 322.2 39.59 315.97 32.57 312.73 26.26 307.7 21.81 300.94 14.35 293.27 4.77 298.43 2.37 304.83 11.31 309.11 15.59 323.87 19.67 324.31 19.13 324.18 0.83 316.62 -7.53 308.43 -22.91 306.46 -39.84 301.17 -52.81 300.45 -52.74 300.38 -53.47 299.66 -53.41 295.87 -66.02 287.63 -82.15 275.51 -89.39 260.93 -94.22 257.14 -98.52 254.98 -114.68 248.43 -128.27 244.35 -144.28 242.56 -156.33 243.43 -168.6 244.99 -184.36 244.97 -198.52 236.15 -207.28 226.55 -222.06 221.45 -235.77 212.45 -243.78 201.02 -251.56 193.65 -257.76 188.08 -259.95 180.16 -258.52 168.68 -255.58 160.4 -258.26 153.15 -263 152.98 -264.95 157.17 -272.88 164.76 -278.18 173.42 -279.66 185.03 -278 195.77 -280.88 191.72 -288.11 186.67 -298.4 181.7 -302.11 181.17 -308.18 190.92 -305.61 197.96 -308.91 206.03 -317.18 209.45 -325.54 220 -335.98 222.43 -338.89 224.98 -343.26 226.93 -343.43 230.15 -353.97 236.54 -364.54 238.49 -373 241.91 -381.36 248.29 -386.55 253.98 -391.21 258.96 -395.78 261.87 -415.57 259.83 -424.92 254.26 -427.12 243.06 -429.55 228.89 -429.78 218.31 -433.5 206.56 -436.61 194.39 -436.27 182.84 -442.6 143.65 -435.75 135.08 -430.37 131.53 -434.69 134.82 -441.81 135.97 -445.33 126.53 -444.5 127.33 -449.21 142.84 -450.57 153.88 -458.36 150.8 -460.05 137.05 -463.74 140.57 -470.88 141.19 -469.46 153.93 -480.1 176.11 -488.88 186.62 -502.74 201.48 -508.68 205.09 -523.15 208.74 -534.46 197.49 -540.31 193.37 -539.95 191.5 -539.06 182.78 -538.29 168.41 -537.76 156.79 -539.43 150.01 -538.84 140.03 -538.45 139.12 -540.57 131.2 -544.53 128.04 -544.24 120.84 -548.49 116.79 -547.41 109.46 -547.5 100.05 -537.89 95.69 -531.89 93.72 -523.66 92.32 -517.44 90.92 -516.59 84.25 -517.47 81.49 -518.44 80.75 -518.39 80.79 -517.89 77.87 -503.97 71.94 -501.99 73.13 -496.71 79.29 -487.74 78.6 -487.18 74.2 -484.6 68.93 -483.41 63.35 -482.92 58.25 -479.8 53.59 -480.12 48.91 -477.75 47.63 -470.06 46.47 -466.56 45.79 -460.38 44.68 -456.39 50.78 -450.81 47.99 -449.11 41.7 -451.25 38.62 -450.24 35.56 -437.77 35.84 -434.62 42.08 -432.97 54.31 -432.82 52.79 -427.79 46.11 -426.01 47.46 -424.65 51.74 -423.07 51.14 -421.56 44.34 -415.6 43.12 -412.79 42.52 -411.28 41.88 -404.64 39.69 -404.44 34.73 -399.86 33.88 -395.64 29.27 -392.54 25.2 -386.08 23.91 -384.01 23.61 -379.1 22.92 -372.95 21.58 -371.6 10.13 -371.34 3.54 -368.56 3.83 -365.18 11.58 -363.16 13.62 -362.13 13.19 -358.66 12.56 -351.77 17.09 -347.52 23.24 -338.53 25.18 -338.72 25.15 -339.2 35.75 -343.54 46.61 -350.6 49.21 -351.55 50.1 -349.68 48.39 -344.16 42.5 -336.08 38.25 -328.87 31.13 -318.23 28.82 -313.88 26.03 -306.81 23.72 -302.46 22.67 -297.73 18.96 -292.76 14.64 -280.67 12.74 -271.71 18.79 -272.24 20.66 -267.76 18.52 -261.47 13.41 -255.66 6.13 -246.71 1.5 -238.25 -5.92 -222.73 -6.42 -219.99 0.6 -217.91 4.87 -222.19 10.65 -234.18 19.77 -247.18 23.77 -254.37 27.92 -260.1 30.1 -268.59 30.79 -274.75 28.8 -283.38 28.89 -288.02 32.81 -290.56 48.05 -303.36 49.93 -304.26 47.85 -297.24 36.31 -281.34 34.3 -273.59 33.92 -269.65 37.8 -272.68 41.19 -272.99 42.79 -277.01 46.06 -278.77 51.08 -274.33 51.97 -272.46 52.71 -272.52 54.59 -273.42 57.47 -287.84 60.48 -284.19 65.68 -280.48 70.81 -274.85 71 -272.89 64.88 -272.87 61.17 -267.89 58.2 -262.74 56 -257.19 55.25 -251.75 53.48 -246.96 56.19 -241.09 61.39 -234.72 61.17 -223.21 53.17 -214.21 45.33 -200.6 35 -187.47 30.37 -179.01 29.33 -168.67 23.03 -176.41 20.34 -170.82 23.93 -143.79 27.79 -138.75 30.39 -139.71 31.76 -154.73 34.13 -158.34 38.25 -158.71 44.83 -153.18 53.95 -141.04 59.87 -137.66 64 -143.39 65.9 -152.34 69.36 -151.92 76.55 -147.89 90.97 -145.01 104.3 -148.87 110.78 -150.15 113.45 -153.08 121.94 -156.51 137.97 -151.82 144.75 -149.72 141.11 -146.72 136.15 -147.5 132.51 -144.51 125.23 -141.16 120.53 -133.44 113.07 -124 107.24 -115.18 103.1 -106.76 104.59 -98.1 110.98 -86.44 112.53 -77.07 114.15 -75.28 116.55 -78.65 116.78 -75.98 119.18 -70.83 121.39 -62.22 128.6 -63.59 137.99 -65.13 148.8 -72.69 153.16 -70.37 147.63 -63.79 145.72 -54.84 142.5 -44.3 135.57 -39.79 129.12 -27.02 139.83 -21.85 130.96 -14.25 125.08 -3.46 122.94 2.82 125.42 8.71 129.93 12.95 125.21 14.84 118.57 22.74 108.11 20.23 93.03 18.14 73.56 13.24 56.52 19.38 39.11 29.69 7.21 52.99 12.46 57.16 30.59 49.47 44.22 49.01 44.42 59.74 42.09 72.15 40.38 83.29 40.78 87.89 46.7 94.21 40.86 102.78 30.42 117.35 -9.29 135.01 -23.91 138.22 -38.31 143.65 -49.53 146.58 -47.18 151.24 -46.54 158.52 -44.02 165.14 -42.69 171.85 -40.58 173.63 -40.39 175.8 -33.3 178.6 -23.98 176.31 -11.74 168.42 0.2 165.41 3.89 168.5 4.77 173.06 3.79 184.15 7.65 189.17 21.62 192.59 31.82 186.33 35.21 186.03 38.9 189.13 41.49 196.46 47.28 206.7 51.91 215.09 59.12 219.33 69.47 220.39 77.23 217.03 84.57 208.82 92.99 204.66 101.13 202.72 121.19 192.18 120.44 200.3 113.1 208.51 101.14 219.56 90.46 228.81 86.5 236.47 81.95 240.28 77.47 242.15 65.71 241.71 45.08 237.41 28 234.76 9.73 235.13 8.5 237.92 1.14 245.91 -12.01 251.93 -23.62 267.1 -73.79 304.7 -83.86 312.41 -95.67 316.87 -105.49 321.88 -115.33 331.21 -112.32 335.91 -106.9 328.09 -101.7 326.19 -94.37 331.64 -90.7 337.43 -83.91 336.83 -84.58 337.63 -81.21 342.71 -75.45 338.78 -69.73 328.76 -54.52 324 -44.55 312.39 -34.39 314.2 -24.05 315.23 -15.79 317.43 -8.83 318.79 7.49 326.88 13.29 331.74 19.64 334.6 22.31 334.38 32.52 325.43 43.11 298.62 46.92 297.55 49.22 298.83 55.94 300.18 69.28 296.33 84.05 295.04 89.26 293.12 100.06 307.8 103.32 314.34 105.92 319 107.24 320.1 107.14 318.88 111.55 313.63 123.68 312.57 134.93 318.42 142.3 316.3 140.03 306.99 154.38 309.15 170.91 311.12 175.28 308.06 184.07 305.33 186.28 299.76 186.9 292.88 193.59 299.61 201.45 303.08 211.46 302.94 214.04 307.35 219.95 313.66 257.16 311.89 267.19 312.21 280.63 317.88 294.93 316.63 317.53 312.69 332.25 310.68 341.51 307.66 343.83 303.56 359.47 295.36 372.2 287.41 376.65 274.08 374 268.94 356.94 266.52 344.03 266.93 329.56 263.31 329.84 252.53 325.2 244.16 337.68 241.6 340.54 235.25 347.58 229.26 345.04 225.34 338.64 221.99 346.58 217.87 355.18 215.66 360.2 220.09 369.53 217.81 373.05 210.66 371.92 206.13 372.12 200 377.56 200.76 386.84 197.98 396.66 187.62 406.24 163.09 409.32 145.24 407.6 125.63"></polygon>
    <polygon class="cls-4" points="631.95 454.28 639.71 454.28 646.45 453 652.25 446.33 651.71 432.24 648.46 423.84 642.42 414.79 642.38 406.58 645.52 398.09 636.75 391.79 629.05 392.47 617.21 400.57 609.6 415.15 614.07 429.82 613.58 447.67 631.95 454.28"></polygon>
    <polygon class="cls-4" points="588.6 117.87 591.01 124.5 591.9 126.93 594.12 128.8 597.34 131.71 598.13 132.78 598.93 134.08 598.46 136.63 598.55 137.77 597.94 138.51 591.88 139.71 588.81 141.13 587.05 144.46 585.79 150.97 585.66 157.37 586.27 164.16 586.32 164.84 585.38 166.98 586.14 168.05 586.27 169.4 589.53 172.79 591.74 174.64 595.52 176.12 602.25 179.87 605.48 180.29 608.02 180.75 609.99 179.89 610.24 177.36 609.47 168.53 608.05 165.46 604.56 162.1 604.34 159.62 604.11 156.9 604.74 156.38 605.14 155.68 606.56 156.24 609.05 156.01 610.29 154.53 615.62 150.19 615.75 146.51 616.77 142.55 617.75 138.13 618.56 134.18 622.43 126.32 622.7 124.25 622.6 123.11 619.99 121.98 612.46 121.93 611.68 120.86 611.53 119.07 611.25 115.88 611.53 111.3 610.3 105.02 610.53 99.99 611.05 98.1 611.97 95.52 613.79 92.84 616.92 86.88 619.23 84.62 621.24 83.98 623.54 81.72 626.55 79.63 630.12 78.65 638.62 74.03 644.91 73.01 649.89 72.58 656.39 73.84 660.85 75.27 663.63 75.71 666.51 74.78 671.9 71.11 675.02 70.38 688.42 69.68 695.47 71.79 698.05 72.7 706.52 80.85 710.12 85.57 710.76 87.56 711.44 87.49 710.01 91.97 707.71 102.2 704.23 114.6 701.53 125.56 698.67 137.22 681.84 148.28 684.13 158.8 703.91 168.47 701.8 180.75 693.86 191.72 682.68 199.55 680.56 211.82 674.47 223.07 665.76 225.2 651.95 218.66 640.47 217.83 639.49 227.5 642.82 244.78 643.78 255.65 641.82 269.72 641.12 290.56 633.66 298.96 632.55 307.29 634.68 318.5 637.32 327.87 636.71 334.06 623.89 333.37 615.02 325.94 613.28 313.98 615.41 301.69 615.78 290.28 606.97 283.5 596.17 282.64 587.17 276.32 585.4 268.96 581.49 268.63 575.84 261.59 570.75 260.67 558.01 261.1 545.05 264.28 527.43 274.05 511.34 277.95 505.06 279.19 491.72 270.09 486.46 267.36 486.81 266.19 489.8 263.86 497.56 263.86 505.7 270.92 509.04 272.46 519.35 267.67 532.08 267.23 536.06 267.77 533 264.65 525.3 262.82 514.6 263.07 508.72 261.07 512.99 252.5 520.4 251.15 536.6 248.37 548.21 243.02 568.21 239.44 575.4 235.62 570.7 231.47 562.09 234.71 557.17 235.84 546.76 234.24 538.24 230.65 531.96 224.13 532.45 214.06 533.24 210.11 534.43 208.18 535.13 208.1 537.39 205.41 538.07 205.34 541.37 201.17 546.01 196.9 560.54 180.56 564.66 162.4 570.89 139.73 578.86 121.23 588.6 117.87"></polygon>
    <polygon class="cls-4" points="923.78 16.21 926.37 22.38 931.7 18.02 940.54 12.25 947.16 14.86 953.66 16.11 963.62 15.23 960.18 9.82 962.57 8.47 966.53 4.25 975.4 -4.04 987.19 -7.59 995.6 -10.38 996.22 -3.35 1000.53 -6.24 1004.62 -16.86 1010.99 -24.95 1018.3 -35.18 1027.04 -37.07 1033.93 -36.54 1024.47 -30.02 1018.62 -23.8 1016.62 -17.92 1023.04 -22.81 1031.59 -26.76 1040.2 -30.02 1047.91 -30.7 1054.17 -24.4 1062.13 -19.41 1065.29 -11.91 1068.5 -11.73 1075.33 -6.63 1082.81 -7.28 1085.94 -8.02 1090.83 -1.6 1095.39 6.23 1099.09 19.81 1106.9 23.02 1114.82 24.83 1123.16 26.14 1126.51 35.89 1131.69 45.49 1136.27 53.53 1137.86 71.64 1137.83 84.43 1131.96 98.16 1128.86 112.36 1129.58 120.5 1136.76 124.44 1146.25 131.15 1148.9 140.5 1151.4 153.5 1153.23 166.58 1157.36 177.17 1160.75 195.13 1161.06 206.5 1162.73 217.77 1165.93 233.46 1174.43 242.07 1182 250.3 1185.45 253.21 1187.24 258.06 1187.93 281.49 1185.39 302.03 1182.81 309.11 1182.2 309.84 1182.37 311.89 1181.63 311.24 1174.9 312.54 1165.58 302.4 1156.89 289.24 1145.97 286.99 1145.27 299.84 1143.25 313.25 1130.32 319.4 1113.39 326.58 1101.1 332.22 1094.1 346.07 1075.4 356.61 1064.41 361.44 1055.73 364.04 1046.51 368.02 1038.05 373.11 1035.49 380.4 1033.32 389.49 1030.22 390.45 1025.13 384.5 1011.69 374.27 1010.02 378.75 1010.53 389.65 1020.89 401.3 1035.27 406.43 1039.03 420.71 1039.75 442.08 1051.78 457 1087.03 481.76 1099.69 495.94 1110.52 505.02 1131.26 517.82 1137.57 524.8 1136.36 534.48 1127.47 539.82 1116.48 544.44 1111.65 554.44 1108.85 566.78 1082.77 579.1 1077.65 593.48 1080.03 612.88 1089.2 631.69 1090.72 641.15 1080.92 646.57 1075.04 636.81 1057.32 637.69 1043.07 633.91 1038.65 640.69 1011.63 644.88 997.94 647.44 986.82 655.94 974.76 664.07 958.33 664.14 941.55 654.88 927.59 654.28 919.4 662.53 915.76 670.37 909.01 674.15 897.15 668.8 890.49 657.99 880.2 655.24 868.2 656.29 855.45 661.73 848.71 657.76 834.25 651.51 821.08 646.95 809.47 644.77 778.32 651.16 762.65 652.06 744.99 653.61 735.13 655.61 727.46 648.75 726.26 648.17 723.91 644.73 722.41 632.76 722.21 617.49 724.48 599.04 734.45 569.63 737.71 554.76 749.74 540.93 759.29 527.55 761.97 513.85 745.59 506.63 728.39 500.36 698.58 490.88 688.86 489.21 675.51 487.87 669.21 475.87 661.59 466.96 654.59 460.05 646.44 453 652.24 446.34 651.71 432.24 648.46 423.85 642.42 414.79 642.38 406.58 645.52 398.08 629.05 392.47 649.08 373.6 649.45 364.68 644.15 353.71 642.6 343.83 642.42 341.78 636.72 334.06 637.32 327.86 634.68 318.5 632.54 307.28 633.65 298.96 641.12 290.57 641.82 269.72 643.78 255.65 642.82 244.77 639.5 227.5 640.47 217.83 651.95 218.67 665.76 225.2 674.47 223.08 680.56 211.82 682.68 199.55 693.86 191.72 701.8 180.75 703.91 168.47 684.13 158.8 681.84 148.27 698.67 137.22 701.53 125.55 704.23 114.6 707.71 102.2 710 91.96 711.44 87.49 727.57 84.03 732.98 93.83 734.89 94.8 732.2 84.98 727.18 79.72 721.8 75.64 714.79 73.75 710.73 71.58 709.83 69.16 713.02 61.35 717.67 57.07 721.26 48.54 732.42 45.73 750.7 43.44 767.44 47 772.91 57.26 774.53 70.58 782.22 69.9 782.4 58.94 790.84 61.38 797.25 74.74 803 83.14 796.49 60.9 796.45 52.68 796.89 41.93 798.95 36.72 802.68 30 809.09 30.13 826.81 29.26 829.06 26.32 821.61 21.96 814.33 16.9 815.42 8.6 819.89 7.51 820.64 3.12 815.9 -1.51 812.85 -7.62 814.79 -14.18 809.93 -17.64 803.71 -18.22 807.63 -23.13 808.67 -26.88 815.86 -30.7 822.32 -35.15 819.85 -42.46 813.54 -49.44 808.4 -58.57 804.68 -64.63 805.31 -70.39 805.56 -75.43 814.48 -75.07 841.29 -68.52 853.52 -69.59 862.29 -65.8 869.98 -63.95 876.02 -52.4 875.66 -43.47 869.36 -34.69 872.84 -31.35 881.05 -31.38 881.71 -23.91 888.11 -23.79 891.91 -29.82 905.09 -25.28 909.32 -18.57 916.41 -18.5 927.49 -22.21 933.62 -25.26 938.25 -21.79 938.4 -12.22 932.88 -4.89 925.17 0.8 921.47 10.71 923.78 16.21"></polygon>
    <polygon class="cls-5" points="439.38 287.45 437.86 306.52 439.93 317.06 451.96 324.23 464.69 323.78 468.98 336.2 473.53 346.52 484.84 350.55 492.74 354.88 493.61 356.85 500.37 361.28 514.85 367.54 520.44 374.12 522.4 383.54 524.11 403.01 535.47 407.73 546.95 408.54 552.41 400.53 560.53 391.61 567.65 392.13 568.3 399.6 566.92 412.51 569.24 418.06 570.97 422.19 571.47 422.83 568.34 428.79 581.63 437.23 590.62 446.02 602.99 449.27 613.58 447.67 631.95 454.28 639.71 454.28 646.44 453 654.59 460.05 661.59 466.96 669.21 475.87 675.51 487.87 688.86 489.22 698.58 490.88 728.39 500.36 745.59 506.63 761.97 513.85 759.29 527.55 749.74 540.93 737.71 554.76 734.46 569.63 724.48 599.04 722.21 617.5 722.41 632.76 723.91 644.73 726.26 648.17 716.52 652.38 707.01 658.31 694.78 657 687.78 656.78 682.08 664.81 686.36 671.97 684.73 674.16 676.44 681.05 663.79 695.62 656.82 701.94 649.54 712.62 639.98 727.42 634.67 733.07 629.67 741.04 624.34 745.38 619.47 760.19 618.55 773.05 616.7 778.8 621.27 788.51 628.79 782.44 635.91 775.86 643.92 765.8 654.17 765.59 666.15 767.05 670.23 769.21 669.19 778.2 669.5 789.58 671.52 796.92 672.13 803.95 681.04 806.83 683.64 812.98 677.09 819.39 676.56 820.68 672.95 816.24 670.03 826.95 671.99 833.62 675.25 842.25 684.3 867.45 687.39 879.26 672.93 888.76 667.25 899.22 663.19 907.85 663.75 914.2 667.69 917.88 670.7 920.67 676.68 923.81 677.58 933.98 674.77 946.32 674.89 960.68 678.65 974.95 685.97 985.73 697.63 988.59 709.07 988.96 718.57 990.62 722.68 1000.99 722.48 1011.75 719.39 1020.91 720.46 1025.15 718.88 1028.01 693.94 1040.24 691.88 1045.44 684.07 1050 676.47 1057.07 668.18 1063.95 659.85 1070.38 655.66 1072.11 655.02 1080.39 651.51 1084.58 631.78 1091.31 624.48 1093.78 619.03 1096.77 617.8 1095.73 608.13 1094.75 597.82 1094.29 594.5 1090.24 590.38 1087.41 586.75 1082.48 577.82 1082.12 571.33 1080.87 566.1 1078.58 564.38 1071.88 556.28 1068.04 546.83 1067.05 540.8 1063.23 538.03 1062.78 530.5 1062.76 528.39 1067.51 516.96 1067.13 505.82 1062.41 502.89 1057.65 498.82 1055.48 478.81 1050.86 474.45 1045.54 466.86 1044.82 454.58 1050.46 446.98 1057.52 431.95 1065.68 421.59 1069.77 404.94 1075.11 395.85 1088.44 390.66 1107.4 392.06 1110.47 395.56 1113.82 395.07 1152.64 386.64 1150.17 368.31 1149.27 349.96 1150.87 330.96 1150.05 311.3 1149.7 301.79 1144.53 287.48 1132.85 280.42 1125.24 270.19 1122.95 262.88 1120.39 244.7 1105.55 233.96 1100.11 221.96 1101.16 206.95 1109.56 198.06 1109.64 179.48 1103.92 156.21 1095.51 118.21 1081.02 110.54 1071.66 96.81 1060.77 82.44 1055.65 73.12 1046.44 65.88 1039.3 55.47 1029.02 49.98 1021.44 44.58 1014 57.65 1017.42 72.78 1010.4 80.44 996.27 86.33 977.5 96.12 951.32 106.28 921.23 118.33 899.85 122.35 896.32 113.95 886.33 113.67 883.15 117.85 865.69 125.08 841.53 128.93 820.21 133.83 811.11 143.42 824.2 150.01 834.35 153.1 840.91 150.89 823.54 143.22 808.94 130.91 798.6 127.99 786.07 136.93 773.43 139.33 756.56 135.84 745.45 137.31 733.46 134.82 733.68 134.08 733.06 123.68 728.95 108.64 718.86 94.99 706.14 86.03 689.81 79.9 671.86 83.77 658.75 84.6 644.76 82.43 635.59 107.65 634.52 95.63 627.38 75.14 625.27 60.27 622.25 63.18 611.27 66.21 601.41 62.81 599.21 40.81 595.42 46.88 591.71 38.96 587.37 23.22 589.9 17.24 586.77 16.44 582.97 14.81 579.89 5.05 570.04 -5.56 563.43 -22.83 553.99 -29.66 548.87 -40.45 548.01 -54.79 551.09 -58.96 540.04 -71.8 523.6 -63.08 521.47 -52.55 519.41 -53.78 513.12 -62.72 512.53 -63.96 506.26 -57.43 499.98 -51.04 500.11 -47.85 494.82 -72.65 493.1 -71.36 486.81 -64.56 475.97 -49.88 471.49 -35.95 469.12 -16.32 469.23 -6.15 470.84 1.96 469.47 11.52 469.3 14.14 462.68 21.45 460.23 26.31 463.67 33.15 463.54 46.57 465.55 52.83 472.09 61.75 485.22 72.02 495.72 83.9 493.31 94.51 491.93 97.37 493.51 104.38 495.41 113.74 492.76 123.02 491.95 127.83 494.72 131.53 500.55 145.58 502.07 151.53 496.98 143.92 490.81 142.58 475.63 144.54 461.56 142.76 448.93 142.75 433.18 135.74 426.03 133.44 415.52 135.22 391.41 145.94 396.63 170.78 399.02 174.91 401.84 171.26 412.21 177.7 420.54 183.27 432.14 189.44 432.3 207.7 437.54 223.59 444.37 235.81 445.81 246.45 444.87 259.08 438.06 283.71 437.96 286.22 435.23 279.54 431.93 262.85 429.07 262.75 422.69 272.53 409.05 291.33 399.87 308.61 396.54 329.88 391.94 346.16 382.31 362.79 368.98 364.66 361.74 360.32 356.43 368.06 322.21 377.67 301.75 393.18 296.51 408.64 293.33 420 292.79 433.71 290.46 439.38 287.45"></polygon>
    <polygon class="cls-3" points="585.39 268.97 582.72 266.91 575.85 261.59 570.75 260.67 558.01 261.1 545.05 264.28 527.43 274.05 511.34 277.95 505.07 279.19 491.72 270.09 486.46 267.36 486.81 266.19 478.66 266.89 466.88 270.44 439.5 283.54 439.39 287.45 437.86 306.52 439.93 317.06 451.95 324.23 464.69 323.77 468.98 336.2 473.53 346.52 484.83 350.55 492.74 354.88 493.61 356.85 500.38 361.28 514.85 367.55 520.44 374.13 522.4 383.53 524.11 403.01 538.39 411.07 546.96 408.54 552.42 400.53 557.63 394.78 567.64 392.13 568.3 399.6 566.92 412.51 569.24 418.06 570.96 422.19 571.47 422.83 568.35 428.79 581.63 437.23 590.62 446.02 602.99 449.27 613.58 447.67 614.07 429.82 609.6 415.15 617.21 400.56 629.05 392.47 636.71 385.68 649.08 373.6 649.44 364.67 644.15 353.72 642.6 343.82 642.42 341.78 636.72 334.06 626.55 330.08 619.05 325.47 613.28 313.98 613.28 303.19 609.93 290.93 606.98 283.5 596.17 282.63 587.17 276.32 585.39 268.97"></polygon>
    <polygon class="cls-4" points="591.32 91.62 593.42 86.88 592.07 84.49 586.51 93.86 576.76 104.99 572.97 113.99 582.05 108.18 586.16 97.77 591.43 92.75 591.32 91.62"></polygon>
    <polygon class="cls-4" points="591.32 91.62 593.42 86.88 592.07 84.49 586.51 93.86 576.76 104.99 572.97 113.99 582.05 108.18 586.16 97.77 591.43 92.75 591.32 91.62"></polygon>
    <polygon class="cls-4" points="588.6 117.87 591.01 124.5 591.9 126.93 594.12 128.8 597.34 131.71 598.13 132.78 598.93 134.08 598.46 136.63 598.55 137.77 597.94 138.51 591.88 139.71 588.81 141.13 587.05 144.46 585.79 150.97 585.66 157.37 586.27 164.16 586.32 164.84 585.38 166.98 586.14 168.05 586.27 169.4 589.53 172.79 591.74 174.64 595.52 176.12 602.25 179.87 605.48 180.29 608.02 180.75 609.99 179.89 610.24 177.36 609.47 168.53 608.05 165.46 604.56 162.1 604.34 159.62 604.11 156.9 604.74 156.38 605.14 155.68 606.56 156.24 609.05 156.01 610.29 154.53 615.62 150.19 615.75 146.51 616.77 142.55 617.75 138.13 618.56 134.18 622.43 126.32 622.7 124.25 622.6 123.11 619.99 121.98 612.46 121.93 611.68 120.86 611.53 119.07 611.25 115.88 611.53 111.3 610.3 105.02 610.53 99.99 611.05 98.1 611.97 95.52 613.79 92.84 616.92 86.88 619.23 84.62 621.24 83.98 623.54 81.72 626.55 79.63 630.12 78.65 638.62 74.03 644.91 73.01 649.89 72.58 656.39 73.84 660.85 75.27 663.63 75.71 666.51 74.78 671.9 71.11 675.02 70.38 688.42 69.68 695.47 71.79 698.05 72.7 706.52 80.85 710.12 85.57 710.76 87.56 711.44 87.49 710.01 91.97 707.71 102.2 704.23 114.6 701.53 125.56 698.67 137.22 681.84 148.28 684.13 158.8 703.91 168.47 701.8 180.75 693.86 191.72 682.68 199.55 680.56 211.82 674.47 223.07 665.76 225.2 651.95 218.66 640.47 217.83 639.49 227.5 642.82 244.78 643.78 255.65 641.82 269.72 641.12 290.56 633.66 298.96 632.55 307.29 634.68 318.5 637.32 327.87 636.71 334.06 626.55 330.08 619.47 326.32 613.28 313.98 615.41 301.69 611.88 295.83 606.97 283.5 594.05 283.54 587.17 276.32 585.4 268.96 582.01 266.35 575.84 261.59 570.75 260.67 558.01 261.1 545.05 264.28 527.43 274.05 511.34 277.95 505.06 279.19 491.72 270.09 486.46 267.36 486.81 266.19 489.8 263.86 497.56 263.86 505.7 270.92 509.04 272.46 519.35 267.67 532.08 267.23 536.06 267.77 533 264.65 525.3 262.82 514.6 263.07 508.72 261.07 512.99 252.5 520.4 251.15 536.6 248.37 548.21 243.02 568.21 239.44 575.4 235.62 570.7 231.47 562.09 234.71 557.17 235.84 546.76 234.24 538.24 230.65 531.96 224.13 532.45 214.06 533.24 210.11 534.43 208.18 535.13 208.1 537.39 205.41 538.07 205.34 541.37 201.17 546.01 196.9 560.54 180.56 564.66 162.4 570.89 139.73 578.86 121.23 588.6 117.87"></polygon>
    <polygon class="cls-4" points="496.19 248.25 494.08 255.28 494.35 258.44 497.58 258.84 501.16 255.35 501.49 251.44 496.19 248.25"></polygon>
    <polygon class="cls-4" points="496.19 248.25 494.08 255.28 494.35 258.44 497.58 258.84 501.16 255.35 501.49 251.44 496.19 248.25"></polygon>
    <polygon class="cls-4" points="522.22 227.49 519.44 224.53 527.66 224.51 532.51 230.47 537.41 234.38 538.21 238.17 536.4 238.35 522.22 227.49"></polygon>
    <polygon class="cls-4" points="522.22 227.49 519.44 224.53 527.66 224.51 532.51 230.47 537.41 234.38 538.21 238.17 536.4 238.35 522.22 227.49"></polygon>
    <polygon class="cls-4" points="507.44 233.35 509.75 231.09 513.6 230.76 523.66 236.28 524 240.12 520.04 239.1 512.52 234.05 507.44 233.35"></polygon>
    <polygon class="cls-4" points="507.44 233.35 509.75 231.09 513.6 230.76 523.66 236.28 524 240.12 520.04 239.1 512.52 234.05 507.44 233.35"></polygon>
    <polyline class="cls-6" points="636.72 334.06 620.08 327.54 613.28 313.98 613.28 299.36 606.98 283.5 593.42 283.5 587.17 276.32 585.39 268.97 575.85 261.59 566 258.84 545.05 264.28 521.16 275.57 505.07 279.19 497.79 275.57 486.81 266.19"></polyline>
    <path class="cls-6" d="M439.5,283.54l-1.64,23,2.07,10.53,5.93,3.54,6.09,3.63,12.75-.46,6.65,17.81,2.18,4.94,11.3,4,7.91,4.33,7.63,6.39,7.06,3.06,7.41,3.21,5.59,6.59,2,9.4s-1.7,3,0,11.24L524.1,403l4.72,1.95,9.57,6.11,8.56-2.54,5.46-8,5.22-5.74,10-2.67.66,7.48-.54,5.08-.83,7.81h0l4,9.7-2.61,6.6,9.78,6.2,7.27,5.9,5.23,5.12L603,449.25l10.66-4.11.42-15.33-4.48-14.66,4.65-10.65L630,390.6l6.67-4.92,6.2-5"></path>
  </g>
  <g id="Symboles">
    <line class="cls-7" x1="514.89" y1="249.91" x2="514.89" y2="305.58"></line>
    <path class="cls-8" d="M431.57,452.58A11.93,11.93,0,0,1,441.63,471h0l-10.07,15.76L421.5,471h0a11.93,11.93,0,0,1,10.06-18.37m0,17.06a5.12,5.12,0,1,0-5.12-5.12h0a5.12,5.12,0,0,0,5.12,5.12m0-20.06a14.93,14.93,0,0,0-12.75,22.73,1.28,1.28,0,0,0,.15.25l10,15.72a3,3,0,0,0,2.53,1.38h0a3,3,0,0,0,2.53-1.38l10.07-15.77c.05-.08.1-.16.14-.24a14.92,14.92,0,0,0-12.74-22.74Zm0,17.06a2.12,2.12,0,1,1,2.12-2.12h0A2.12,2.12,0,0,1,431.56,466.69Z"></path>
    <path class="cls-8" d="M280.37,200.68a11.94,11.94,0,0,1,10.07,18.37h0l-10.08,15.77L270.3,219.05h0a11.94,11.94,0,0,1,10.06-18.37m0,17.07a5.12,5.12,0,1,0-5.12-5.12h0a5.12,5.12,0,0,0,5.12,5.12m0-20.07a14.93,14.93,0,0,0-12.74,22.73,2.15,2.15,0,0,0,.14.26l10.08,15.76a3,3,0,0,0,2.52,1.39h0a3,3,0,0,0,2.52-1.39L293,220.67l.14-.24a15,15,0,0,0-12.75-22.75Zm0,17.07a2.12,2.12,0,1,1,2.12-2.12h0A2.13,2.13,0,0,1,280.36,214.75Z"></path>
    <path class="cls-8" d="M548.8,299.36a9.67,9.67,0,0,1,8.14,14.87h0L548.8,327l-8.15-12.75h0a9.65,9.65,0,0,1,8.14-14.87m0,13.81a4.14,4.14,0,1,0-4.14-4.14,4.14,4.14,0,0,0,4.14,4.14h0m0-16.81A12.66,12.66,0,0,0,538,315.61c0,.08.09.16.14.23l8.15,12.75A3,3,0,0,0,548.8,330h0a3,3,0,0,0,2.53-1.39l8.15-12.75c0-.07.09-.14.13-.22a12.67,12.67,0,0,0-10.81-19.26Zm0,13.81a1.14,1.14,0,1,1,1.14-1.14,1.14,1.14,0,0,1-1.14,1.14Z"></path>
    <path class="cls-9" d="M478.12,93l32.2-8.67-31.93-8.59,8.84-15.35-15.38,8.86-8.62-32-8.67,32.22L438.8,60.39l9,15.61-31.88,8.59,31.9,8.58-9,15.65,15.54-8.95,8.57,31.86,8.61-32,15.71,9ZM463,88a3.48,3.48,0,0,0,2.44-1L483,104.59,463,92.44V88.05Zm39.09-3.72-25.41,6.2-3.41-5.93.15-.27Zm-31.26.27h-4.39a3.36,3.36,0,0,0-1-2.43L483,64.61Zm-1.47-13.93-6.15,3.54V45.46ZM463,76.77v4.39a3.4,3.4,0,0,0-2.44,1L443,64.61Zm-13.81,1.7,3.52,6.12H424.12ZM443,104.59l12.15-20h4.39a3.48,3.48,0,0,0,1,2.44l-5.27,5.27h0l-2.37,2.37h0v0Zm13.77-6.14,6.11-3.51v28.57Z"></path>
    <path class="cls-8" d="M757.23,423.23a.29.29,0,0,0-.41,0,.28.28,0,0,0,0,.4,1.19,1.19,0,0,1,.35.84.29.29,0,0,0,.58,0A1.77,1.77,0,0,0,757.23,423.23Z"></path>
    <path class="cls-8" d="M780.77,435.81l-3.62-8.95a2.88,2.88,0,0,0-1.31-5.24l.48-4.33a2.88,2.88,0,1,0-2.09-4.87l-5.85-3.95a2.88,2.88,0,0,0-5.26-2.35,2.91,2.91,0,0,0,0,2.35l-5.85,3.95a2.88,2.88,0,1,0-2.09,4.87l.48,4.33a2.89,2.89,0,0,0-1.32,5.24l-3.62,8.95a.26.26,0,0,0,.24.39h3.17a.29.29,0,0,0,.28-.22l2.12-8.67a2.92,2.92,0,0,0,1.61-1l5.2,4.05a2.84,2.84,0,0,0-.5,1.62,2.8,2.8,0,0,0,.75,1.94l-.27,1.92a.32.32,0,0,0,.07.23.26.26,0,0,0,.22.1h4.22a.3.3,0,0,0,.22-.1.24.24,0,0,0,.06-.23l-.26-1.92a2.89,2.89,0,0,0,.75-1.94,2.83,2.83,0,0,0-.51-1.62l5.21-4.05a2.86,2.86,0,0,0,1.61,1L777,436a.29.29,0,0,0,.28.22h3.17a.29.29,0,0,0,.24-.13A.27.27,0,0,0,780.77,435.81ZM773.05,423l-4.63-2.25a2.88,2.88,0,0,0,.17-.64h.07l4.43,2.87Zm-7.3,1.4a2.31,2.31,0,1,1,2.3-2.32h0a2.32,2.32,0,0,1-2.3,2.32Zm-9.51-2.79-.49-4.39a2.79,2.79,0,0,0,1.67-1l4.91,3.51-4.28,2.77a2.81,2.81,0,0,0-1.81-.88Zm6.64-2.22-5.14-3.67a.89.89,0,0,0,.08-.17l5.44,2.67a2.88,2.88,0,0,0-.38,1.18ZM758.41,423l4.43-2.87h.06a3.58,3.58,0,0,0,.18.64L758.45,423Zm5-3.27a2.31,2.31,0,0,1,4.61,0,2.47,2.47,0,0,1-.08.6,2.91,2.91,0,0,0-.43-.43.24.24,0,0,0,0-.12,1.77,1.77,0,0,0-.52-1.25.29.29,0,0,0-.41,0,.28.28,0,0,0,0,.4,1.11,1.11,0,0,1,.33.61,2.73,2.73,0,0,0-1.22-.28,2.86,2.86,0,0,0-2.23,1.06,2.35,2.35,0,0,1,0-.65Zm10.32-4-5.15,3.67a2.79,2.79,0,0,0-.39-1.19l5.46-2.65.11.12Zm-.31,6.76-4.29-2.77,4.92-3.51a2.79,2.79,0,0,0,1.67,1l-.49,4.39a2.86,2.86,0,0,0-1.78.84Zm2.86-10.39a2.31,2.31,0,1,1-2.3,2.32h0a2.32,2.32,0,0,1,2.28-2.36h0Zm-2.43.78a2.89,2.89,0,0,0-.38,2.12l-5.63,2.74a2.86,2.86,0,0,0-1.83-.92v-6.65a2.92,2.92,0,0,0,2-1.2Zm-8.1-7.93a2.3,2.3,0,1,1-2.31,2.3,2.3,2.3,0,0,1,2.31-2.3Zm-2.34,4a2.92,2.92,0,0,0,2.05,1.2v6.65a2.84,2.84,0,0,0-1.85.94L758,415a3.05,3.05,0,0,0,.06-.6,2.86,2.86,0,0,0-.44-1.53Zm-10.53,5.44a2.31,2.31,0,1,1,2.32,2.3h0a2.3,2.3,0,0,1-2.3-2.32h0Zm1,21.22h-2.51l3.43-8.49a3,3,0,0,0,1.1.22Zm2-8.84a2.31,2.31,0,1,1,2.3-2.32h0a2.32,2.32,0,0,1-2.23,2.28Zm2.71-3.25,4.25-2.08a2.73,2.73,0,0,0-.07.64,2.88,2.88,0,0,0,2,2.74l-.65,4.74a4.17,4.17,0,0,0-.47.36l-5.24-4.07a2.8,2.8,0,0,0,.36-1.39,2.65,2.65,0,0,0-.13-1Zm4.75,8.47a2.29,2.29,0,0,1,.39-1.27l.2.16-.3,2.22a2.17,2.17,0,0,1-.24-1.15Zm.53,3.62L765.43,425h.64l1.46,10.67ZM768,432a2.37,2.37,0,0,1-.28,1.11l-.31-2.22.21-.16a2.28,2.28,0,0,1,.43,1.23Zm-.3-2.06a2.4,2.4,0,0,0-.47-.37l-.65-4.74a2.88,2.88,0,0,0,2-2.74,2.74,2.74,0,0,0-.08-.64l4.25,2.08a3,3,0,0,0-.16.94,2.8,2.8,0,0,0,.36,1.39Zm5.47-5.47a2.31,2.31,0,1,1,2.31,2.31h0a2.3,2.3,0,0,1-2.25-2.34Zm4.35,11.15-2-8.27a3,3,0,0,0,1.1-.22l3.43,8.49Z"></path>
    <circle class="cls-8" cx="755.96" cy="423.03" r="0.38"></circle>
    <path class="cls-8" d="M756.41,414.52a.29.29,0,0,0,.28.28h0a.29.29,0,0,0,.29-.28,1.75,1.75,0,0,0-.52-1.26.28.28,0,0,0-.4,0h0a.28.28,0,0,0,0,.4h0A1.23,1.23,0,0,1,756.41,414.52Z"></path>
    <circle class="cls-8" cx="755.19" cy="413.06" r="0.38"></circle>
    <path class="cls-8" d="M777.62,414.52a.29.29,0,1,0,.58,0,1.81,1.81,0,0,0-.52-1.26.29.29,0,0,0-.42.4h0A1.19,1.19,0,0,1,777.62,414.52Z"></path>
    <circle class="cls-8" cx="776.41" cy="413.06" r="0.38"></circle>
    <path class="cls-8" d="M776.82,424.49a.29.29,0,0,0,.58,0,1.73,1.73,0,0,0-.52-1.25.29.29,0,0,0-.42.4h0A1.15,1.15,0,0,1,776.82,424.49Z"></path>
    <circle class="cls-8" cx="775.61" cy="423.04" r="0.38"></circle>
    <path class="cls-8" d="M767,407.35a.29.29,0,1,0,.58,0,1.73,1.73,0,0,0-.52-1.25.3.3,0,0,0-.41,0,.28.28,0,0,0,0,.4h0A1.19,1.19,0,0,1,767,407.35Z"></path>
    <circle class="cls-8" cx="765.78" cy="405.89" r="0.38"></circle>
    <path class="cls-8" d="M767.57,422.14a1.77,1.77,0,0,0-.52-1.25.29.29,0,0,0-.41,0,.28.28,0,0,0,0,.4,1.15,1.15,0,0,1,.35.84.29.29,0,1,0,.58,0Z"></path>
    <circle class="cls-8" cx="765.78" cy="420.69" r="0.38"></circle>
    <circle class="cls-8" cx="765.78" cy="418.28" r="0.38"></circle>
    <path class="cls-8" d="M339.71,492.83a56.44,56.44,0,0,1-5.8-10.45,67.84,67.84,0,0,1-3.15-9.3h.2a.5.5,0,0,0,0-1h-.45a2.13,2.13,0,0,0-.1-.42,85.65,85.65,0,0,1-2-26.75.54.54,0,0,0-.11-.37.48.48,0,0,0-.33-.18l-.76-.08v-2.53a.5.5,0,0,0-1,0v2.53l-.75.08a.52.52,0,0,0-.34.18.5.5,0,0,0-.1.37,86,86,0,0,1-2,26.75,1.63,1.63,0,0,1-.11.42h-.44a.5.5,0,0,0,0,1h.2a67.89,67.89,0,0,1-3.16,9.3,55.55,55.55,0,0,1-5.8,10.45.53.53,0,0,0,0,.52.51.51,0,0,0,.44.26h5.17a.48.48,0,0,0,.36-.15.54.54,0,0,0,.14-.36v-.23a7,7,0,1,1,13.9,0h0v.23a.54.54,0,0,0,.14.36.48.48,0,0,0,.36.15h5.17a.5.5,0,0,0,.5-.48.54.54,0,0,0-.1-.3ZM324,471.9a87.73,87.73,0,0,0,2-26.59l.64-.07.67.07a88.07,88.07,0,0,0,2.09,26.59.27.27,0,0,0,.05.19h-5.58A1.27,1.27,0,0,1,324,471.9Zm10.67,20.72a7.94,7.94,0,0,0-15.87,0H315a57.6,57.6,0,0,0,5.36-9.85,67.28,67.28,0,0,0,3.26-9.69h6.08a67.28,67.28,0,0,0,3.26,9.69,57.6,57.6,0,0,0,5.36,9.85Z"></path>
    <path class="cls-8" d="M328.31,475.31a.49.49,0,0,0-.48-.37h-2.26a.49.49,0,0,0-.48.37l-1.91,7.07a.5.5,0,0,0,.36.61.53.53,0,0,0,.35,0,6.25,6.25,0,0,1,5.62,0,.46.46,0,0,0,.23.06.51.51,0,0,0,.31-.11.52.52,0,0,0,.17-.52Zm-1.61,6a7.19,7.19,0,0,0-2.3.37L326,476h1.5l1.55,5.72a7.21,7.21,0,0,0-2.3-.39Z"></path>
    <path class="cls-8" d="M174.38,249.36h-2.93V204h0v-.06h0v-.07h0v-.06h0l-3.69-4.72V194.4a.45.45,0,0,0-.45-.45H166v-3.77a.45.45,0,0,0-.45-.45h-.71v-2.61a.45.45,0,0,0-.45-.45h-1.22V183.1a.45.45,0,0,0-.9,0v3.53H161a.45.45,0,0,0-.45.45v2.61h-.72a.45.45,0,0,0-.45.45v3.77h-1.29a.45.45,0,0,0-.45.45v4.69L154,203.77h0v.06h0v.08h0V204h0v45.32H151a.45.45,0,0,0-.45.45v3.64a.45.45,0,0,0,.45.45h23.49a.45.45,0,0,0,.45-.45v-3.64a.46.46,0,0,0-.5-.4Zm-19.66-44.87h15.83V220H154.72Zm9.13-17v2.16h-2.43v-2.16Zm-2.85,3.1h4v3.32h-4.77v-3.32Zm-1.17,4.22h7v3.95h-8.26v-3.95Zm-1.52,4.85H167l3.08,3.93H155.2Zm-3.56,21.2h15.83v28.5H154.72ZM173.93,253H151.35v-2.74h22.58V253Z"></path>
    <path class="cls-8" d="M162.64,205.51a6.46,6.46,0,1,0,6.45,6.47h0A6.47,6.47,0,0,0,162.64,205.51Zm0,12a5.56,5.56,0,1,1,5.55-5.57v0a5.56,5.56,0,0,1-5.55,5.56Z"></path>
    <path class="cls-8" d="M158.12,223.79a.46.46,0,0,0-.45.45v22.9a.46.46,0,0,0,.91.14.33.33,0,0,0,0-.14v-22.9A.46.46,0,0,0,158.12,223.79Z"></path>
    <path class="cls-8" d="M161.11,223.79a.45.45,0,0,0-.45.45v22.9a.45.45,0,1,0,.9,0h0v-22.9A.45.45,0,0,0,161.11,223.79Z"></path>
    <path class="cls-8" d="M164.1,223.79a.45.45,0,0,0-.45.45v22.9a.45.45,0,0,0,.9,0h0v-22.9A.45.45,0,0,0,164.1,223.79Z"></path>
    <path class="cls-8" d="M167.09,223.79a.45.45,0,0,0-.45.45v22.9a.45.45,0,1,0,.9,0h0v-22.9A.45.45,0,0,0,167.09,223.79Z"></path>
    <path class="cls-8" d="M162.64,211.52H159a.45.45,0,0,0,0,.9h3.15v3.38a.45.45,0,1,0,.9,0V212A.45.45,0,0,0,162.64,211.52Z"></path>
    <path class="cls-10" d="M347.52,480.65h3.75c3,0,4.93,1,4.93,3.87s-2,4.05-4.85,4.05H349.2v5.21h-1.68Zm3.62,6.57c2.3,0,3.4-.84,3.4-2.7s-1.17-2.51-3.48-2.51H349.2v5.21Z"></path>
    <path class="cls-10" d="M360.54,480.65h1.89l4.44,13.13H365.1l-2.29-7.33c-.47-1.47-.89-2.91-1.31-4.43h-.08c-.41,1.53-.83,3-1.3,4.43l-2.32,7.33h-1.7Zm-2.1,7.8h6v1.33h-6Z"></path>
    <path class="cls-10" d="M368.64,480.65h4.12c2.67,0,4.59,1,4.59,3.7s-1.92,3.88-4.59,3.88h-2.44v5.55h-1.68Zm3.88,6.23c2,0,3.16-.83,3.16-2.53s-1.12-2.34-3.16-2.34h-2.2v4.87Zm-.09.89,1.31-.86,4,6.87h-1.89Z"></path>
    <path class="cls-10" d="M380,480.65h1.68v13.13H380Z"></path>
    <path class="cls-10" d="M384.33,492.07l1-1.15a5.09,5.09,0,0,0,3.62,1.63c1.73,0,2.75-.86,2.75-2.13s-.95-1.77-2.19-2.31l-1.89-.83c-1.22-.53-2.66-1.45-2.66-3.38s1.75-3.49,4.14-3.49A5.38,5.38,0,0,1,393,482l-.88,1.07a4.23,4.23,0,0,0-3-1.23c-1.48,0-2.45.74-2.45,1.92s1.14,1.73,2.17,2.17l1.87.81c1.52.65,2.71,1.56,2.71,3.51s-1.71,3.73-4.48,3.73A6.27,6.27,0,0,1,384.33,492.07Z"></path>
    <path class="cls-11" d="M651.23,422.87h3.9c2.67,0,4.52.91,4.52,3.21a2.89,2.89,0,0,1-1.92,2.86V429a3,3,0,0,1,2.67,3.14c0,2.58-2,3.84-5,3.84h-4.2Zm3.62,5.59c2.23,0,3.15-.83,3.15-2.16,0-1.53-1-2.1-3.08-2.1h-2v4.26Zm.34,6.21c2.24,0,3.57-.81,3.57-2.58,0-1.61-1.28-2.35-3.57-2.35H652.9v4.93Z"></path>
    <path class="cls-11" d="M663,422.87h4.11c2.68,0,4.6,1,4.6,3.69s-1.92,3.89-4.6,3.89h-2.44V436H663Zm3.87,6.22c2,0,3.17-.82,3.17-2.53s-1.12-2.34-3.17-2.34h-2.2v4.87Zm-.08.9,1.3-.86,4,6.87H670.2Z"></path>
    <path class="cls-11" d="M674.32,430.58v-7.71H676v7.75c0,3.16,1.33,4.15,3,4.15s3.11-1,3.11-4.15v-7.75h1.6v7.71c0,4.21-2,5.66-4.71,5.66S674.32,434.79,674.32,430.58Z"></path>
    <path class="cls-11" d="M689.4,429.22l-3.57-6.35h1.84l1.79,3.36c.33.6.61,1.14,1,1.91h.08c.35-.77.61-1.31.92-1.91l1.75-3.36H695l-3.58,6.43,3.83,6.7H693.4l-1.92-3.54c-.35-.65-.7-1.3-1.12-2.11h-.08c-.38.81-.71,1.46-1,2.11L687.34,436h-1.76Z"></path>
    <path class="cls-11" d="M697.33,422.87h7.57v1.41H699v4.12h5v1.41h-5v4.77h6.1V436h-7.77Z"></path>
    <path class="cls-11" d="M707.87,422.87h1.67v11.71h5.73V436h-7.4Z"></path>
    <path class="cls-11" d="M717.59,422.87h1.67v11.71H725V436h-7.4Z"></path>
    <path class="cls-11" d="M727.31,422.87h7.57v1.41H729v4.12h5v1.41h-5v4.77h6.1V436h-7.77Z"></path>
    <path class="cls-11" d="M736.9,434.29l1-1.15a5.13,5.13,0,0,0,3.62,1.63c1.73,0,2.75-.86,2.75-2.13s-.95-1.77-2.19-2.31l-1.89-.83c-1.22-.53-2.66-1.46-2.66-3.39s1.75-3.48,4.14-3.48a5.39,5.39,0,0,1,3.86,1.63l-.89,1.07a4.15,4.15,0,0,0-3-1.23c-1.48,0-2.45.74-2.45,1.92s1.14,1.73,2.17,2.17l1.87.81c1.52.65,2.71,1.56,2.71,3.51s-1.72,3.73-4.48,3.73A6.29,6.29,0,0,1,736.9,434.29Z"></path>
    <path class="cls-10" d="M182.82,240.38h1.67V252.1h5.73v1.41h-7.4Z"></path>
    <path class="cls-10" d="M191.26,246.9c0-4.2,2.31-6.76,5.61-6.76s5.61,2.56,5.61,6.76-2.31,6.85-5.61,6.85S191.26,251.11,191.26,246.9Zm9.5,0c0-3.27-1.55-5.29-3.89-5.29s-3.89,2-3.89,5.29,1.55,5.38,3.89,5.38S200.76,250.17,200.76,246.9Z"></path>
    <path class="cls-10" d="M205.3,240.38H207l4.75,8.26,1.42,2.72h.08c-.09-1.33-.22-2.81-.22-4.18v-6.8h1.59v13.13h-1.73l-4.75-8.26-1.41-2.71h-.08c.08,1.33.21,2.73.21,4.1v6.87H205.3Z"></path>
    <path class="cls-10" d="M218.24,240.38h3.29c4,0,6.2,2.35,6.2,6.52s-2.17,6.61-6.13,6.61h-3.36Zm3.16,11.76c3.07,0,4.6-1.92,4.6-5.24s-1.53-5.15-4.6-5.15h-1.49v10.39Z"></path>
    <path class="cls-10" d="M230.54,240.38h4.11c2.68,0,4.6,1,4.6,3.7s-1.92,3.88-4.6,3.88h-2.44v5.55h-1.67Zm3.87,6.23c2.05,0,3.17-.83,3.17-2.53s-1.12-2.34-3.17-2.34h-2.2v4.87Zm-.09.9,1.31-.87,4,6.87h-1.9Z"></path>
    <path class="cls-10" d="M241.92,240.38h7.57v1.42h-5.9v4.11h5v1.42h-5v4.77h6.1v1.41h-7.77Z"></path>
    <path class="cls-10" d="M251.51,251.8l1-1.14a5.12,5.12,0,0,0,3.62,1.62c1.72,0,2.75-.85,2.75-2.13s-1-1.77-2.19-2.31L254.8,247a3.69,3.69,0,0,1-2.66-3.38c0-2,1.75-3.49,4.13-3.49a5.42,5.42,0,0,1,3.87,1.63l-.89,1.07a4.17,4.17,0,0,0-3-1.23c-1.47,0-2.44.75-2.44,1.92s1.14,1.74,2.17,2.17l1.87.81c1.52.65,2.71,1.56,2.71,3.51s-1.72,3.73-4.48,3.73A6.27,6.27,0,0,1,251.51,251.8Z"></path>
    <line class="cls-1" x1="348.83" y1="278.5" x2="383.54" y2="237.63"></line>
    <path class="cls-12" d="M591,283.35A18,18,0,1,0,557.81,293h0L573,316.8,588.16,293h0A18,18,0,0,0,591,283.35Zm-18,7.72a7.72,7.72,0,1,1,7.72-7.72h0A7.72,7.72,0,0,1,573,291.07Z"></path>
    <circle class="cls-13" cx="574.42" cy="257.64" r="36.37"></circle>
    <rect class="cls-14" x="547.8" y="249.91" width="55.21" height="18.4"></rect>
    <polygon class="cls-15" points="545.75 247.87 545.75 268.31 547.8 268.31 547.8 249.91 603 249.91 603 247.87 545.75 247.87"></polygon>
    <polygon class="cls-10" points="551.89 256.05 553.71 256.05 553.71 258.16 553.73 258.16 555.36 256.05 557.62 256.05 555.46 258.44 557.97 262.18 555.69 262.18 554.22 259.79 553.71 260.37 553.71 262.18 551.89 262.18 551.89 256.05"></polygon>
    <g class="cls-16">
      <path class="cls-10" d="M563.45,259.8c0,1.7-.89,2.52-2.7,2.52S558,261.5,558,259.8V256h1.84v3.34c0,.63,0,1.41.89,1.41s.86-.78.86-1.41V256h1.83Z"></path>
    </g>
    <g class="cls-16">
      <polygon class="cls-10" points="566.14 256.05 567.97 256.05 567.97 260.61 570.55 260.61 570.55 262.18 566.14 262.18 566.14 256.05"></polygon>
    </g>
    <g class="cls-16">
      <polygon class="cls-10" points="571.11 256.05 575.97 256.05 575.97 257.62 572.92 257.62 572.92 258.38 575.7 258.38 575.7 259.84 572.92 259.84 572.92 260.61 576.07 260.61 576.07 262.18 571.11 262.18 571.11 256.05"></polygon>
    </g>
    <g class="cls-16">
      <path class="cls-10" d="M582,259.8c0,1.7-.89,2.52-2.7,2.52s-2.71-.82-2.71-2.52V256h1.82v3.34c0,.63,0,1.41.89,1.41s.87-.78.87-1.41V256H582Z"></path>
    </g>
    <g class="cls-16">
      <polygon class="cls-10" points="586.02 262.18 583.98 262.18 582.21 256.05 584.05 256.05 585.03 259.76 585.04 259.76 586 256.05 587.88 256.05 586.02 262.18"></polygon>
    </g>
    <g class="cls-16">
      <polygon class="cls-10" points="588.14 256.05 593 256.05 593 257.62 589.95 257.62 589.95 258.38 592.72 258.38 592.72 259.84 589.95 259.84 589.95 260.61 593.1 260.61 593.1 262.18 588.14 262.18 588.14 256.05"></polygon>
    </g>
    <g class="cls-16">
      <polygon class="cls-10" points="593.57 256.05 595.44 256.05 597.17 259.33 597.18 259.33 597.18 256.05 598.91 256.05 598.91 262.18 597.13 262.18 595.32 258.83 595.3 258.83 595.3 262.18 593.57 262.18 593.57 256.05"></polygon>
    </g>
    <path class="cls-12" d="M536,217.79a21.08,21.08,0,1,0-38.83,11.34h0c7.1,11.13,17.77,27.81,17.77,27.81l17.78-27.81h0A21,21,0,0,0,536,217.79Zm-21.08,9a9,9,0,1,1,9-9h0a9,9,0,0,1-9,9h-.07Z"></path>
    <circle class="cls-13" cx="514.61" cy="193.63" r="36.63"></circle>
    <g id="layer1">
      <g id="g13">
        <path id="path15" class="cls-17" d="M528.86,193.74H499.67V193h29.19Z"></path>
        <path id="path17" class="cls-17" d="M528.86,178.83H499.67v-.74h29.19Z"></path>
        <path id="path19" class="cls-17" d="M528,192.41H500.54v-.75H528Z"></path>
        <path id="path21" class="cls-17" d="M528,180.21H500.54v-.75H528Z"></path>
        <path id="path23" class="cls-17" d="M517.2,180.73h-1.5l-.44,10.44h2.37Z"></path>
        <path id="path25" class="cls-17" d="M512.89,180.73H511.4l-.4,10.44h2.37Z"></path>
        <path id="path27" class="cls-17" d="M521.48,180.73H520l-.44,10.44h2.37Z"></path>
        <path id="path29" class="cls-17" d="M525.76,180.73h-1.5l-.44,10.44h2.37Z"></path>
        <path id="path31" class="cls-17" d="M508.64,180.73h-1.51l-.43,10.44h2.37Z"></path>
        <path id="path33" class="cls-17" d="M504.33,180.73h-1.5l-.43,10.44h2.37Z"></path>
        <path id="path35" class="cls-17" d="M514.31,172.32l-13.13,5.14h26.18Z"></path>
        <path id="path37" class="cls-17" d="M529.17,176.69l-14.86-5.86-15,5.88.34.67,14.66-5.75,14.57,5.75Z"></path>
        <path id="path39" class="cls-17" d="M485.29,196.17v4.53c0,1.25.39,2.41,1.92,2.41s1.91-1.16,1.91-2.41v-4.53h1V201a2.91,2.91,0,1,1-5.81.34,1.93,1.93,0,0,1,0-.34v-4.86Z"></path>
        <path id="path41" class="cls-17" d="M491.38,195.8l6,6v-5.67h1v8l-6-6v5.73h-1Z"></path>
        <path id="path43" class="cls-17" d="M500.69,203.85h-1v-7.68h1Z"></path>
        <path id="path45" class="cls-17" d="M504.79,201.85l2.36-5.68h1.08l-3.44,8.09-3.45-8.09h1.09Z"></path>
        <path id="path47" class="cls-17" d="M508.9,196.17h4.27V197h-3.28v2.15h3.18V200h-3.18v3h3.28v.88H508.9Z"></path>
        <path id="path49" class="cls-17" d="M515.37,199.8h.32c1,0,2.1-.18,2.1-1.4s-1.17-1.38-2.16-1.38h-.26Zm4,4h-1.2l-2.34-3.25h-.41v3.25h-1v-7.68h1.2a4.3,4.3,0,0,1,2.09.35,2.15,2.15,0,0,1,.74,3,2.13,2.13,0,0,1-1.61,1Z"></path>
        <path id="path51" class="cls-17" d="M523.62,197.63a1.35,1.35,0,0,0-1.27-.73A1.25,1.25,0,0,0,521,198c0,.6.61.92,1.11,1.1l.57.21c1.12.43,2,1,2,2.32a2.41,2.41,0,0,1-2.43,2.39h-.1a2.46,2.46,0,0,1-2.46-2.15l1-.2a1.5,1.5,0,0,0,3,0c0-.83-.68-1.18-1.37-1.46l-.54-.23c-.9-.37-1.73-.87-1.73-1.94a2.15,2.15,0,0,1,2.29-2h0a2.25,2.25,0,0,1,2,1.17Z"></path>
        <path id="path53" class="cls-17" d="M526.7,203.85h-1v-7.68h1Z"></path>
        <path id="path55" class="cls-17" d="M530.32,203.85h-1V197h-1.88v-.87h4.75V197h-1.88Z"></path>
        <path id="path57" class="cls-17" d="M533,196.17h4.26V197H534v2.15h3.18V200H534v3h3.27v.88H533Z"></path>
        <path id="path59" class="cls-17" d="M539.42,203.85h-1v-7.68h1Z"></path>
        <path id="path61" class="cls-17" d="M543,203.85h-1V197h-1.88v-.87h4.75V197H543Z"></path>
        <path id="path63" class="cls-17" d="M508.92,209.58v.31a3.62,3.62,0,0,1-3.51,3.73h-.24a4,4,0,0,1,.11-8,4.17,4.17,0,0,1,3.22,1.49l-.69.64a3.16,3.16,0,0,0-2.49-1.25,3.12,3.12,0,0,0-3.17,3.07v0a3.2,3.2,0,0,0,3.09,3.14,2.63,2.63,0,0,0,2.59-2.28h-2.05v-.88Z"></path>
        <path id="path65" class="cls-17" d="M509.91,205.77h4.25v.88h-3.27v2.15h3.18v.87h-3.18v2.91h3.27v.87h-4.25Z"></path>
        <path id="path67" class="cls-17" d="M515.29,205.41l6,6v-5.68h1v8l-6-6v5.72h-1Z"></path>
        <path id="path69" class="cls-17" d="M525.78,213.45h-1v-6.8H522.9v-.88h4.75v.88h-1.88Z"></path>
      </g>
    </g>
    <path class="cls-12" d="M359.45,228a21.08,21.08,0,1,0-38.83,11.34h0c7.1,11.13,17.77,27.81,17.77,27.81l17.77-27.81h0A21,21,0,0,0,359.45,228Zm-21.08,9a6.36,6.36,0,1,1,.06.06h-.06Z"></path>
    <circle class="cls-13" cx="338.18" cy="202.26" r="36.62"></circle>
    <path class="cls-18" d="M313.41,197.63h3.2v8.16l.11.08a1.12,1.12,0,0,1,.13-.24l6.54-7.79a.59.59,0,0,1,.49-.23h3.38l-7.44,8.55c.54.65,1.05,1.31,1.59,1.93a22.39,22.39,0,0,0,2.17,2.4,12.44,12.44,0,0,0,4.68,2.74,9.27,9.27,0,0,0,3.85.22c1.18-.17,2.35-.41,3.57-.62.05.21.1.48.16.75s.16.76.26,1.14c0,.16,0,.24-.16.27-1,.2-2,.48-3.07.59a19,19,0,0,1-3.2.06,12,12,0,0,1-5.93-1.62,15.89,15.89,0,0,1-3.65-3.14c-1.11-1.29-2.16-2.64-3.23-4l-.23-.25v8.69h-3.22Z"></path>
    <path class="cls-18" d="M342.3,215.39h-3.21V204.84c0-.27,0-.4-.35-.42-.61-.06-1.22-.15-1.85-.23v-1.68a44.32,44.32,0,0,1,5.28-.22l-.18,2.5v.06a.35.35,0,0,1,.06-.14,5.45,5.45,0,0,1,3.83-2.54,7.3,7.3,0,0,1,3.12.08,3.53,3.53,0,0,1,2.73,2.92,5.92,5.92,0,0,1,.11,1.19v9h-3.22v-8.23a5.53,5.53,0,0,0-.17-1.4,1.76,1.76,0,0,0-1.75-1.41,4,4,0,0,0-4.16,3,7.62,7.62,0,0,0-.25,1.9v6.1Z"></path>
    <path class="cls-18" d="M362.71,213.11l.26,2.24c-.78.09-1.53.2-2.28.25a9.94,9.94,0,0,1-2.83-.14,2.65,2.65,0,0,1-2.22-2.37,8.81,8.81,0,0,1-.11-1.36v-7.29h-2.77v-2.19h2.77v-3.63c0-.24.08-.32.29-.37,1-.22,2-.46,3-.7v4.81h4V204c0,.52,0,.52-.52.52h-3.18c-.25,0-.31.07-.31.32v6.39a4.11,4.11,0,0,0,.07.78,1.46,1.46,0,0,0,1.6,1.33h0c.65,0,1.3-.09,1.95-.14Z"></path>
    <path class="cls-18" d="M327.92,209.16v-1.75a44.39,44.39,0,0,1,5.53-.22,2.62,2.62,0,0,0-1.3-2.64,3.77,3.77,0,0,0-3.85.12,3.24,3.24,0,0,0-1.4,2.2,6.77,6.77,0,0,0,.66,4.85,2.26,2.26,0,0,1-.37-.11,11.71,11.71,0,0,1-3.64-2.76.38.38,0,0,1-.1-.27,6.09,6.09,0,0,1,4.87-6.3,8.77,8.77,0,0,1,5.49.46,4.75,4.75,0,0,1,2.91,4.18c.08.89,0,1.79,0,2.71Z"></path>
    <path class="cls-18" d="M313.39,189.43h1v4.37a1.13,1.13,0,0,0,1,1.23h.76a1.14,1.14,0,0,0,1.12-1.14c0-1,0-2,.06-3v-1.45h1v3.82a3.11,3.11,0,0,1-.09.86,2.11,2.11,0,0,1-2.15,1.71,5.53,5.53,0,0,1-1.22-.1,1.8,1.8,0,0,1-1.5-1.62,5.49,5.49,0,0,1-.05-.7v-3.66Z"></path>
    <path class="cls-18" d="M348.14,191.1h.94c.07,0,.17.14.21.24.34,1,.67,1.93,1,2.89a1.34,1.34,0,0,0,.07.18c0-.11.08-.18.1-.25.33-1,.67-1.92,1-2.87.05-.14.11-.22.27-.21h.82c-.19.53-.37,1-.56,1.51-.46,1.23-.91,2.46-1.39,3.68a6.53,6.53,0,0,1-.58,1.07,1.73,1.73,0,0,1-1.65.75l-.5-.05.09-.79h.51a1.06,1.06,0,0,0,1-.54,4.91,4.91,0,0,0,.37-.92.51.51,0,0,0,0-.32c-.5-1.38-1-2.75-1.53-4.13C348.2,191.31,348.18,191.22,348.14,191.1Z"></path>
    <path class="cls-18" d="M356.7,195.84c-1.19,0-1.92-.73-2-2.11a2.85,2.85,0,0,1,.34-1.62,2.34,2.34,0,0,1,3.21-.79,1.88,1.88,0,0,1,.23.16,2.14,2.14,0,0,1,.65,1.52,2.57,2.57,0,0,1-1,2.5A2.25,2.25,0,0,1,356.7,195.84Zm1.45-2.42h-.06v-.36a1.11,1.11,0,0,0-1-1.19,1.09,1.09,0,0,0-1.28.88.5.5,0,0,0,0,.12,2.49,2.49,0,0,0,.09,1.48,1.07,1.07,0,0,0,1.05.72,1,1,0,0,0,1-.67,6.61,6.61,0,0,0,.22-1Z"></path>
    <path class="cls-18" d="M323.57,195.72h-.91v-3a.79.79,0,0,0-.42-.84,1,1,0,0,0-1,.22,1.56,1.56,0,0,0-.56,1.17v2.47h-1v-3.53c0-.26,0-.41-.34-.39a1.8,1.8,0,0,1-.32-.06v-.6h1.6l-.07.84a2,2,0,0,0,.17-.23,1.75,1.75,0,0,1,2-.68,1.14,1.14,0,0,1,.86,1.12v3.46S323.57,195.7,323.57,195.72Z"></path>
    <path class="cls-18" d="M335,193.49h-3a1.23,1.23,0,0,0,.83,1.53,1.2,1.2,0,0,0,.38,0,4.7,4.7,0,0,0,.75,0,4.79,4.79,0,0,0,.74-.21l.1.73a3.68,3.68,0,0,1-2.69.11,1.87,1.87,0,0,1-.77-.65,3.14,3.14,0,0,1,.06-3.15,2.15,2.15,0,0,1,2.84-.5A2,2,0,0,1,335,193Zm-1-.68a.86.86,0,0,0-.64-1l-.12,0a1,1,0,0,0-1.22,1.05Z"></path>
    <path class="cls-18" d="M361.29,195.72h-1v-3.87h-.88v-.76H360c.21,0,.25-.06.26-.25a4.23,4.23,0,0,1,.14-1,1.53,1.53,0,0,1,1.7-1c.9.06.77-.05.64.87-.23,0-.45-.06-.68-.06a.73.73,0,0,0-.8.65h0c-.16.76-.13.79.63.79h.57v.75h-1.24Z"></path>
    <path class="cls-18" d="M326.41,191.1a6.61,6.61,0,0,1,.89,0,.41.41,0,0,1,.25.23c.35,1,.68,1.92,1,2.89a1.43,1.43,0,0,0,.1.29c.17-.5.31-1,.47-1.41l.63-1.79c.05-.16.12-.24.31-.23h.84l-.74,2c-.31.82-.63,1.63-.94,2.45a.3.3,0,0,1-.34.24c-.73,0-.73,0-1-.67-.47-1.24-.94-2.48-1.42-3.72A.58.58,0,0,0,326.41,191.1Z"></path>
    <path class="cls-18" d="M347.56,194.94v.3c0,.56,0,.56-.55.59h-.56a1,1,0,0,1-1-1v-3h-.88v-.74h.88V190c0-.37.05-.41.34-.44a4.85,4.85,0,0,0,.63-.16v1.47c0,.2.06.28.27.27h.93v.74h-1.17v2.34a2.16,2.16,0,0,0,0,.36c.09.39.25.51.65.48Z"></path>
    <path class="cls-18" d="M341.56,191.82c-.41,0-.76-.06-1.11-.06a.57.57,0,0,0-.59.38.53.53,0,0,0,.25.63,2.52,2.52,0,0,0,.75.33,1.33,1.33,0,0,1,1.06,1.19,1.3,1.3,0,0,1-.7,1.24,3.25,3.25,0,0,1-2.17.24.2.2,0,0,1-.12-.15V195l1.08.13h.22a.62.62,0,0,0,.64-.6.62.62,0,0,0-.43-.61,2.55,2.55,0,0,0-.53-.18,1.11,1.11,0,0,1-1-1,1.26,1.26,0,0,1,.63-1.33,2.78,2.78,0,0,1,1.94-.24.19.19,0,0,1,.14.13A4.75,4.75,0,0,0,341.56,191.82Z"></path>
    <path class="cls-18" d="M335.3,191.74v-.6h1.57l-.07,1a1.43,1.43,0,0,1,1.6-1l-.06.83h0c-.89,0-1.29.44-1.33,1.4v2.4h-1v-3.53c0-.26-.05-.4-.34-.39A2.26,2.26,0,0,1,335.3,191.74Z"></path>
    <path class="cls-18" d="M342.18,191.74v-.6h1.68v4.58h-1v-3.49c0-.3-.06-.45-.37-.45A1.65,1.65,0,0,1,342.18,191.74Z"></path>
    <path class="cls-18" d="M324.13,191.74v-.59h1.62v4.56h-.93v-3.48c0-.29-.06-.45-.38-.44Z"></path>
    <path class="cls-18" d="M343.38,189.09a.5.5,0,0,1,.55.44.48.48,0,0,1,0,.12.57.57,0,0,1-.64.49.55.55,0,0,1-.49-.49C342.8,189.27,343,189.09,343.38,189.09Z"></path>
    <path class="cls-18" d="M324.77,189.62c0-.36.17-.53.55-.53a.49.49,0,0,1,.56.41.33.33,0,0,1,0,.14.56.56,0,1,1-1.11.15.38.38,0,0,1,0-.15Z"></path>
    <line class="cls-19" x1="340.7" y1="287.45" x2="343.81" y2="289.97"></line>
    <line class="cls-20" x1="349.72" y1="294.76" x2="441.39" y2="369.05"></line>
    <polyline class="cls-19" points="444.34 371.44 447.45 373.96 450.42 371.29"></polyline>
    <line class="cls-21" x1="456.84" y1="365.51" x2="504.96" y2="322.21"></line>
    <line class="cls-19" x1="508.17" y1="319.32" x2="511.14" y2="316.65"></line>
    <line class="cls-19" x1="447.45" y1="373.96" x2="451.28" y2="372.8"></line>
    <line class="cls-22" x1="459.19" y1="370.41" x2="565.99" y2="338.08"></line>
    <line class="cls-19" x1="569.95" y1="336.88" x2="573.78" y2="335.72"></line>
    <polyline class="cls-23" points="549.13 339.22 649.44 443.08 745.96 443.08"></polyline>
    <path class="cls-10" d="M546.06,342.53a4.51,4.51,0,1,1,6.38.12,4.52,4.52,0,0,1-6.38-.12Z"></path>
    <path class="cls-8" d="M545.63,343a5.11,5.11,0,1,0,.12-7.23,5.12,5.12,0,0,0-.12,7.23l0,0C547.58,345,543.67,340.92,545.63,343Zm6.49-6.27a3.91,3.91,0,1,1-5.53-.09,3.91,3.91,0,0,1,5.53.09Z"></path>
    <path class="cls-12" d="M477.79,303.85a29,29,0,1,0-53.4,15.59h0l24.44,38.25,24.45-38.25h0A29,29,0,0,0,477.79,303.85Zm-29,12.42a12.43,12.43,0,1,1,12.43-12.43h0a12.42,12.42,0,0,1-12.42,12.42Z"></path>
    <circle class="cls-24" cx="448.8" cy="273.41" r="53.61"></circle>
    <path class="cls-12" d="M448.8,223.8a49.61,49.61,0,1,1-49.61,49.61h0A49.61,49.61,0,0,1,448.8,223.8m0-8a57.61,57.61,0,1,0,57.61,57.61h0A57.67,57.67,0,0,0,448.8,215.8Z"></path>
    <path class="cls-24" d="M447.45,385.55A11.59,11.59,0,1,1,459,373.92V374A11.6,11.6,0,0,1,447.45,385.55Z"></path>
    <path class="cls-12" d="M447.45,364.38a9.59,9.59,0,1,1-9.59,9.59h0a9.6,9.6,0,0,1,9.59-9.58m0-4A13.59,13.59,0,1,0,461,374h0a13.6,13.6,0,0,0-13.59-13.58Z"></path>
    <path class="cls-12" d="M338.18,293.74a8.82,8.82,0,1,1,8.82-8.82A8.82,8.82,0,0,1,338.18,293.74Z"></path>
    <path class="cls-24" d="M338.18,277.1a7.82,7.82,0,1,1-7.82,7.82,7.82,7.82,0,0,1,7.82-7.82h0m0-2a9.82,9.82,0,1,0,9.82,9.82,9.82,9.82,0,0,0-9.82-9.82Z"></path>
    <path class="cls-12" d="M514.37,322.23a8.83,8.83,0,1,1,8.83-8.83A8.83,8.83,0,0,1,514.37,322.23Z"></path>
    <path class="cls-24" d="M514.37,305.58a7.83,7.83,0,1,1-7.82,7.84v0a7.83,7.83,0,0,1,7.82-7.82m0-2a9.83,9.83,0,1,0,9.83,9.83h0A9.85,9.85,0,0,0,514.37,303.58Z"></path>
    <path class="cls-12" d="M573,347.35a8.82,8.82,0,1,1,8.83-8.82A8.82,8.82,0,0,1,573,347.35Z"></path>
    <path class="cls-24" d="M573,330.71a7.82,7.82,0,1,1-7.82,7.82,7.82,7.82,0,0,1,7.82-7.82m0-2a9.82,9.82,0,1,0,9.83,9.82A9.82,9.82,0,0,0,573,328.71Z"></path>
    <polyline class="cls-23" points="280.38 248 280.38 262.18 182.82 262.18"></polyline>
    <circle class="cls-10" cx="280.38" cy="248.27" r="4.51" transform="translate(-56.29 412.29) rotate(-67.5)"></circle>
    <path class="cls-8" d="M275.26,248.26a5.12,5.12,0,1,0,5.13-5.11h0A5.13,5.13,0,0,0,275.26,248.26Zm9,0a3.92,3.92,0,1,1-3.93-3.91h0A3.92,3.92,0,0,1,284.26,248.26Z"></path>
    <line class="cls-23" x1="432.4" y1="500.67" x2="347.4" y2="500.67"></line>
    <circle class="cls-10" cx="432.14" cy="500.67" r="4.51"></circle>
    <path class="cls-8" d="M432.14,495.55a5.12,5.12,0,1,0,5.12,5.12h0A5.13,5.13,0,0,0,432.14,495.55Zm0,9a3.92,3.92,0,1,1,3.92-3.92h0A3.92,3.92,0,0,1,432.14,504.55Z"></path>
    <path class="cls-25" d="M411.45,276.17V263.82H408.9v12.62c0,5.4,3.13,8.64,8.08,8.64h5.37l1.09-2.43H417.7C413.64,282.65,411.45,280.56,411.45,276.17Z"></path>
    <path class="cls-25" d="M421.87,273v-9.2H419.5v10.84a.58.58,0,0,0,.56.6h6.75l1-2.24Z"></path>
    <path class="cls-25" d="M416.7,275.9V263.82h-2.45V276c0,2.64,1.55,4.15,4.25,4.15h6.1l1.06-2.37h-7a1.69,1.69,0,0,1-2-1.36A1.81,1.81,0,0,1,416.7,275.9Z"></path>
    <path class="cls-25" d="M449.5,263.69a.79.79,0,0,0-.82.74v.08a.81.81,0,0,0,.77.83h.05a.82.82,0,0,0,0-1.64Z"></path>
    <path class="cls-25" d="M443.94,278.37a3.42,3.42,0,0,0,0,6.83,3,3,0,0,0,3-2h-1.39a1.76,1.76,0,0,1-1.66.91,1.88,1.88,0,0,1-2-1.73v-.09H447a4.86,4.86,0,0,0,0-.54,3,3,0,0,0-2.59-3.36A3.7,3.7,0,0,0,443.94,278.37Zm-2,2.84a1.85,1.85,0,0,1,1.94-1.72,1.77,1.77,0,0,1,1.88,1.64v.08Z"></path>
    <path class="cls-25" d="M444.94,266.32a2.7,2.7,0,0,0-2.14.93v-.8h-1.31V273h1.31v-3.77a1.58,1.58,0,0,1,1.39-1.75,1.22,1.22,0,0,1,.27,0c1,0,1.51.6,1.51,1.76V273h1.31v-4C447.29,267.37,446.49,266.32,444.94,266.32Z"></path>
    <rect class="cls-25" x="448.83" y="266.45" width="1.31" height="6.57"></rect>
    <path class="cls-25" d="M438.12,279.42a3,3,0,0,0-2.33-1.05,3.21,3.21,0,0,0-3.23,3.19,2.09,2.09,0,0,0,0,.25,3.14,3.14,0,0,0,2.88,3.38h.31a2.67,2.67,0,0,0,2.36-1v.9h1.31v-9.19h-1.31Zm-2.07,4.63a2.24,2.24,0,1,1,2.09-2.09A2.25,2.25,0,0,1,436.05,284.05Z"></path>
    <path class="cls-25" d="M467.09,267.63h2.32v-1.18H467.5a1.66,1.66,0,0,0-1.72,1.6h0v5h1.31Z"></path>
    <polygon class="cls-25" points="488.74 263.82 487.19 263.82 486.32 265.73 487.51 265.73 488.74 263.82"></polygon>
    <path class="cls-25" d="M438.57,269.47c0,1.58-.7,2.41-2.22,2.41s-2.25-.83-2.25-2.41v-5.65h-1.4v5.63c0,2.48,1.34,3.7,3.65,3.7s3.63-1.22,3.63-3.7v-5.63h-1.41Z"></path>
    <polygon class="cls-25" points="455.14 273.02 457.63 266.45 456.21 266.45 454.32 271.92 452.4 266.45 450.99 266.45 453.48 273.02 455.14 273.02"></polygon>
    <path class="cls-25" d="M473.54,269.18l-1.51-.25c-.51-.08-.79-.33-.79-.75s.55-.82,1.3-.82a1.28,1.28,0,0,1,1.43,1.05h1.28c-.07-1.36-1-2.11-2.71-2.11s-2.52.78-2.52,1.93.68,1.67,1.8,1.85l1.39.22a.93.93,0,0,1,.88.9c0,.52-.55.84-1.46.84a1.39,1.39,0,0,1-1.52-1h-1.3c.08,1.28,1.17,2.11,2.82,2.11s2.72-.72,2.72-2a1.86,1.86,0,0,0-1.73-2Z"></path>
    <path class="cls-25" d="M477.34,263.69a.78.78,0,0,0-.82.74h0v.08a.8.8,0,0,0,.77.83h0a.82.82,0,1,0,0-1.64Z"></path>
    <rect class="cls-25" x="476.67" y="266.45" width="1.31" height="6.57"></rect>
    <polygon class="cls-25" points="452.76 275.88 451.36 275.88 451.36 285.07 456.66 285.07 456.66 283.86 452.76 283.86 452.76 275.88"></polygon>
    <path class="cls-25" d="M480.92,264.4h-1.31v6.93a1.63,1.63,0,0,0,1.57,1.69H483v-1.18h-2v-4.21h2v-1.18h-2Z"></path>
    <path class="cls-25" d="M490.11,269.68a3,3,0,0,0-2.61-3.34,2.72,2.72,0,0,0-.57,0,3.42,3.42,0,0,0,0,6.83,3,3,0,0,0,3-2h-1.4a1.72,1.72,0,0,1-1.65.9,1.87,1.87,0,0,1-2-1.71v-.1H490A2.66,2.66,0,0,0,490.11,269.68Zm-5.15-.52a1.85,1.85,0,0,1,1.93-1.72,1.76,1.76,0,0,1,1.88,1.61v.11Z"></path>
    <path class="cls-25" d="M470.94,278.37a3.42,3.42,0,0,0,0,6.83,3,3,0,0,0,3-2h-1.39a1.76,1.76,0,0,1-1.66.91,1.88,1.88,0,0,1-2-1.73v-.09H474a4.86,4.86,0,0,0,0-.54,3,3,0,0,0-2.59-3.36A3.7,3.7,0,0,0,470.94,278.37Zm-2,2.84a1.85,1.85,0,0,1,1.94-1.72,1.77,1.77,0,0,1,1.88,1.64v.08Z"></path>
    <path class="cls-25" d="M458.28,275.74a.78.78,0,0,0-.82.74h0v.08a.8.8,0,0,0,.77.83h0a.82.82,0,0,0,0-1.64Z"></path>
    <path class="cls-25" d="M465.6,275.88h-1.32v7.51a1.54,1.54,0,0,0,1.41,1.68h1.6v-1.21H465.6Z"></path>
    <rect class="cls-25" x="457.61" y="278.5" width="1.31" height="6.57"></rect>
    <path class="cls-25" d="M461.87,275.88h-1.31v7.51a1.54,1.54,0,0,0,1.38,1.68h1.63v-1.21h-1.7Z"></path>
    <path class="cls-25" d="M463,271.13a1.71,1.71,0,0,1-1.65.9,1.87,1.87,0,0,1-2-1.71v-.1h5.11a4.86,4.86,0,0,0,0-.54,3,3,0,0,0-2.6-3.35,2.82,2.82,0,0,0-.58,0,3.42,3.42,0,0,0,0,6.83,3,3,0,0,0,3-2Zm-1.71-3.69a1.75,1.75,0,0,1,1.87,1.61v.11h-3.81a1.85,1.85,0,0,1,1.9-1.72Z"></path>
  </g>
</svg>
