<svg xmlns="http://www.w3.org/2000/svg" viewBox="0 0 678.49 591.85"><defs><style>.a{fill:#293273;}.b{fill:#e00814;}.c{fill:#808181;}.d{fill:#010101;}</style></defs><path class="a" d="M119.52,92.27c1.15-1.14,2.3-2.29,3.34-3.54a63.86,63.86,0,0,1,6.58-6.68,14.47,14.47,0,0,1,2.19-1.67c.21-.21.21-.63.41-.84-.93.42-1.56,1.15-2.6,1.57-.21,0-.42-.21-.21-.42.73-.52,1.46-1,2.08-1.57h-.1c-.21,0-.21-.21-.21-.42-2.61-.41-4.49,1.36-6.26,2.93-.42.21-.84-.21-.94-.21-2.92.94-5.12,3.55-8,4.7V85.7a20.82,20.82,0,0,1-3.55,1.36,20,20,0,0,1-4.9.2,56.71,56.71,0,0,0-7.21,1.26c-.1,0-.1,0-.21.1a15.91,15.91,0,0,0-3.65,1.46l-.42.42a4.58,4.58,0,0,1-1.35,1.15,15,15,0,0,0-3.24,2.61.39.39,0,0,1-.31.1c-1,1-2.09,2.09-3.13,3a1.2,1.2,0,0,1-.63.1c0-.1.1-.1.1-.2.21-.32.32-.53.53-.84l.62-.94a11.45,11.45,0,0,1,.84-1.15c.1-.1.1-.21,0-.21a.41.41,0,0,0-.32-.1,20.25,20.25,0,0,1,3.34-2.51c-.1,0-.31-.1-.2-.2s.2-.32.31-.53,0-.1.1-.21-.1-.1-.1-.2l-.94.62c-.52.42-.84,1.25-1.57,1.25h-.31c-.1,0-.21,0-.21-.1v-.1c0-.11.11-.11.11-.21s.1-.11.1-.21a.11.11,0,0,1,.11-.11.35.35,0,0,1,.1-.2c0-.11.1-.11.1-.21a.79.79,0,0,0,.21-.42c0-.11.11-.11.11-.21s.1-.21.21-.31,0-.32-.11-.32a3.6,3.6,0,0,1,1.36-1.14h-.11c.73-.42,1.57-.84,2.3-1.26l.31-.31A18,18,0,0,0,91,88.73a1.41,1.41,0,0,0-.31.2s-.21.11-.52-.2v-.11c.21-.42.83-.63,1.15-.94.2,0,.41,0,.41.21,6.37-4.91,15-3.76,22.34-6.26a16.21,16.21,0,0,1,1.78-1.15c.93-.42,1.77-1.36,2.92-2A9.05,9.05,0,0,0,122.13,74a.73.73,0,0,0-.21-.42,31.82,31.82,0,0,1-8.66,6.47c-4.18,2.19-8.67,1.78-13.05,2.4a.91.91,0,0,1,.94-.41c0-.63.41-.84.83-1.15h.63c.21,0,.21-.42.42-.42.41,0,1-.21.83-.21-.63-.83-1.77.63-2.71,0,.41-.42.21-.94.62-1.15h.84a1.42,1.42,0,0,1,.42-.83c2.92-1.78,5.74-3.13,8.45-4.7-.63,0-.94.63-1.56.21.41,0,0-.63.41-.63,2.2-.62,4-1.77,6.16-2.61-.83,0-1.36.63-2.19,0,.42-.21.63-.62,1.15-.62v-.63c0-.21.21-.21.42-.21a.73.73,0,0,1-.42-.21c.21-.41.83-.21,1.15-.62-.21,0-.63,0-.63-.21.63-.84,1.57-.94,2.61-1.15-.21-.42-.84,0-.84-.42,0-.21.21-.21.42-.21h-.42c-.41-.21-.2-.62-.2-.83,1.14-1.36,1.14-3.13,1.77-4.7-.21,0-.42,0-.42-.21-2,2.19-5.11,2.92-8,3.76H109.5a3.76,3.76,0,0,1-3.34-.21,13.55,13.55,0,0,1-2-1.56,26.87,26.87,0,0,0-4.9-2.41,44.11,44.11,0,0,0-15.14-2.19c2.19-1.15,4.6-1.25,6.89-2,3.34-.94,6.47-2.19,10-2a6.26,6.26,0,0,0-2,0c-2.71-.21-5.53.62-8.46,1.14-2,.42-3.75,1.15-5.74,1.57-1.14.42-1.77,1.57-3.13,1.36v-.63c2-2.4,4.39-4.7,7.52-4.91,3.55-.62,6.89,0,10.44.42a63.71,63.71,0,0,1,7.51,1.36c.94,0,1.15,1.56,2,1.77,1.15.42,2.41,0,3.55.84,0-.42-.2-.84,0-1.15.84-.83,1.78.21,2.61-.21,1.57-.94-1.35-2.71-2.19-4.17a.73.73,0,0,1,.21-.42c1.57,1.36,2.71,2.92,4.7,4,.94.41,3.34.93,2.92-.21-.94-2.2-2.92-4-4.59-6v-.84c-.42,0-.42-.21-.63-.42v-.83c-.83-.42-.63-1.15-.94-1.78-.62-.93-.21-2.4-.62-3.54a19.68,19.68,0,0,1-.84-3.34c-.63-3.34-1.36-6.27-1.77-9.5-.42-3.76,2.19-6.68,4-10a16,16,0,0,1,5.53-6.27A16.89,16.89,0,0,1,124.84,6c1.57-1.88,4.18-3.13,6.06-4a42.09,42.09,0,0,1,5.22-2H0V104.38H96.76c3.76-2.71,7.52-4,12.74-6.57,2.5-1,8.14-3.66,10-5.54M89.25,78.08c-.42,0-1.15.21-.94-.21.21-.94,1.56-.94,2.4-1.36.42-.21.94-.62,1.36-.41.41.62.94.41,1.35.83-1.25,1.15-2.82.63-4.17,1.15M59,73.8a.73.73,0,0,1-.21-.42,64.61,64.61,0,0,0,6.37-10,24.57,24.57,0,0,0,6.68-5.53,38,38,0,0,1,11.06-8.67,7.27,7.27,0,0,1,5.11.21c-.62.84-1.56.63-2.4,1.15a.76.76,0,0,1-.62-.21.75.75,0,0,0,.21-.62c-2,2.19-4.7,3.13-6.27,5.74-1.14,2-2,4.49-4.48,5.11-.84.21.2-.62-.21-.42C68.06,63.88,63.78,68.48,59,73.8m16.38-13c-.2.42-.41.42-.62.84a1.66,1.66,0,0,1-.84.83c-.21,0-.41,0-.41-.21a2.45,2.45,0,0,1,1.56-1.77c.31-.11.31.1.31.31m9.19,29.54a2.63,2.63,0,0,1-.52.63c.21,0,.42.21.21.31a4.56,4.56,0,0,1-1.46,1h-.32a4.66,4.66,0,0,0-.73.74c-.21.2-1.35.1-1-.21.52-.42.94-.94,1.46-1.36A3,3,0,0,0,83,90.6a.84.84,0,0,1,.42-.41c.32-.21,1.36-.32,1.15.1M81,88.73c-.83.52-1.56,1-2.3,1.56a28,28,0,0,1-2.6,1.25.41.41,0,0,0-.32-.1,9.43,9.43,0,0,0-2,1.57l-.31.31-.32.31-.41.42c-.11.1-.11.21-.32.31s-.42.11-.42-.1c-.1.1-.2.1-.31.21s-.21.1-.31.21h-.21c-.21.2-.52.41-.73.62a6.5,6.5,0,0,0-1.15,1.25v.11l-.1.1a.11.11,0,0,1-.11.11c0,.1-.1.1-.1.21a.39.39,0,0,1-.21.1l-.11-.1s0-.11-.1-.11-.1-.21-.21-.31v-.11a4,4,0,0,0,.63-.73c.1-.1.1-.21.21-.21s.2-.31.31-.41.1-.11.1-.21c.21-.31.42-.52.63-.84l.1-.1c.11-.11.21-.31.32-.42s.1-.21.21-.42v-.1c.1-.21.1-.31.2-.42v-.1c0-.11,0-.11.11-.21a.38.38,0,0,1,.1-.31V92a4.08,4.08,0,0,1,.84-1H72a5.34,5.34,0,0,0-.73.62c-.21.21-.62-.1-.31-.31s.31-.31.42-.42a9.27,9.27,0,0,1,1-1,2.31,2.31,0,0,1,.63-.42l.1-.1c.11-.21.32-.32.42-.52C75.47,87,78.7,87,81.11,85.8c.94-.41,2.19.21,3.13,0a2.77,2.77,0,0,1,1.77.42c-1.77.31-3.34,1.46-5,2.51M85.07,75c-.21-.21.63,0,.84-.42H84.34c-.21,0-.21-.21-.21-.42-.94.21-2.19.63-3.13.84-1.36.41-2.61,1.35-4.17,1.77-2.2.84-4,2.61-6.27,3.34-.21,0-.21-.21-.21-.42.21-.62.94-.83,1.36-1.35,0-.21,0-.42-.21-.42,1.57-2.19,3.76-3.34,5.74-5.11v-.63c.63-.84,1.57-1.15,2-2.19a3.74,3.74,0,0,1,2-1.78c-.21-.21-.63-.21-.63-.62-.83,0-1.56.41-2.4-.21a7.44,7.44,0,0,1,1.26-.73c-.21,0-.32-.11-.42-.32-.21-.41.42-.83.94-.94a4.64,4.64,0,0,0,2.4-.83c-1.36-.21-2.92.42-4.39-.42a10.72,10.72,0,0,1,4.91-6c.21,0,.63,0,.63.21a2,2,0,0,1-1.57,2c1.57.42,3.13.42,4.7,1.15-.21.42-.63.21-.84.21.94.63,2.19.21,3.13.94-.62.63-1.14,0-1.77,0,6.16,1.77,12.63,3.13,17.75,7.1-4.39,2.19-8.88,3.13-13.57,4.17a4.06,4.06,0,0,1-1.57-.21c0,.21,0,.63-.21.63a3.08,3.08,0,0,0-2,.42,2,2,0,0,1-2.51.21"/><path class="b" d="M287.58,0H175.47a2.94,2.94,0,0,1,1,.52c.94.52,2.09,1.15,2.82,1.46a9.09,9.09,0,0,1,3.76,3.13,3.27,3.27,0,0,1,.62,2.61c-.41.94-.62,2.61-1.56,2.93a7,7,0,0,1-4.18.41,9.66,9.66,0,0,1-2.4-.41c2.93,1.15,5.74,2.61,7.73,5.32.21.42.94.63,1.77.63.21,0,.21.41.21.62-.42.42-.84.63-.63,1.15h.63c.94-.42.84-2.4,2.19-1.77a2.34,2.34,0,0,1,.84,2.92,20.74,20.74,0,0,1-2.4,2,1.55,1.55,0,0,0,0,1.36,4.74,4.74,0,0,1,.94,2.4c.62,1.36.83,2.92,1.35,4.38a26.11,26.11,0,0,1,1.36,8.88c0,1.56-.84,2.92-.21,4.49a18.13,18.13,0,0,0,2.19,4.17,28.41,28.41,0,0,1,2.2,3.13c1.14,2,3.34,4,2.4,6.27-.63,1.35-2.72,1.14-4.18,2-1.15.94-.21,2.61.42,3.55.94,1.77-1.15,2.92-2.61,3.44.42.63,1.15.42,1.36.84.2.94,1.14,1.56.62,2.61-.83,1.15-3.13,1.77-2,3.55.83,1.35.31,2.92-.21,4.38A4.78,4.78,0,0,1,186,79.85a7.63,7.63,0,0,1-3.76.21,3,3,0,0,0-1.15-.42c-3.34-.41-6.68-1.35-10-1.35a16.32,16.32,0,0,0-2.71.73,21.78,21.78,0,0,0-2.4,2.09c-.11.2-.31.31-.42.52s-.21.21-.21.31l-.21.21a17.84,17.84,0,0,0-1.56,2.3c0,.1-.11.1-.11.1s-.1.21-.2.31a15.84,15.84,0,0,0-1.47,3.66c-1.35,4.49-.73,8.35.21,9.29.21.21,6.47,2.19,10.86,4.17a32.85,32.85,0,0,1,4.7,2.4H287.68V0Z"/><path class="c" d="M182.15,38.2c.83.21,2,.21,2,.63-.42,1.57-2.71,2-4,3.55h-.63c-.63.42-.42,1.36-.94,1.36a2.61,2.61,0,0,0-1.77.21,3.22,3.22,0,0,0,2.92,1.14.93.93,0,0,1,.62.84.65.65,0,0,0,.42-.21c.21,0,.42,0,.42.21v.83c-.63.84-1.57.42-2.4.63a8.52,8.52,0,0,0,4.59,0c1.15-.42,0-2.4.84-3.34-.42,0,0-.63-.42-.63A11,11,0,0,1,185,42.28a1.32,1.32,0,0,0,1.15-.63c0-.42-.84-.63-.63-.94,1.15-.84,2.19-2,1.77-3.13-.21-.63-1.77-.63-2.71-1s-2.19,0-3.34.21a15.28,15.28,0,0,0-2.92.84,13.15,13.15,0,0,0-3.76,2,18.56,18.56,0,0,1,4.28-1.15,9.06,9.06,0,0,1,3.34-.21"/><path class="d" d="M0,234.86V156.57H23.8q12.94,0,20.25,6.27T51.57,180a22.1,22.1,0,0,1-3.24,12.1,21.87,21.87,0,0,1-9.19,8.15l24.43,34.65H44.68L23.9,203.23h-8v31.63Zm15.87-45.09h8.87q5,0,7.72-2.61t2.82-7.41a9.21,9.21,0,0,0-2.82-7.1,10.57,10.57,0,0,0-7.72-2.51H15.87Zm58.76,45.09V156.57H120v13.57H90.4V188.2h25.15v13.57H90.4v19.52H120v13.57Zm15.35-85,12.52-15.13h16.29l-14.41,15.13Zm49.37,85V156.57h25.78q12.84,0,20.15,6.27T192.69,180q0,10.85-7.41,17t-20.15,6.26h-9.91v31.63Zm15.87-45.09h10.54q5.12,0,7.93-2.72a9.45,9.45,0,0,0,2.82-7.3,9,9,0,0,0-2.92-7.1q-2.82-2.61-7.83-2.51H155.22Zm50.21,14.51V156.57h15.86v49q0,7.83,4.18,12.32t11.58,4.38c4.88,0,8.7-1.46,11.49-4.38s4.17-7,4.17-12.32v-49h15.87v47.71q0,15.45-8.46,24.11T237,237.05q-14.61,0-23.07-8.66T205.43,204.28Zm83.82,30.58V156.57h22.12q12.22,0,19.11,5.64t7,15.66q0,9.7-8.25,15.45a23.07,23.07,0,0,1,9.5,7.51,18.71,18.71,0,0,1,3.34,11q0,10.76-7.83,16.91t-21.18,6.16ZM305,221.29h9q5.53,0,8.67-2.71a9.73,9.73,0,0,0,3.13-7.62,9.42,9.42,0,0,0-3.13-7.52q-3.13-2.61-8.67-2.61h-9Zm0-34h6.68a10,10,0,0,0,7-2.29,8,8,0,0,0,2.51-6.37,7.76,7.76,0,0,0-2.51-6.16q-2.4-2.3-7-2.3H305Zm54.28,47.6V156.57h15.76v63.89h29.64v14.4Zm60.43,0V156.57h15.77v78.29Zm35.08-23.17a42.81,42.81,0,0,1-3-16,42,42,0,0,1,3-15.87,41.18,41.18,0,0,1,8.35-13.25,40.13,40.13,0,0,1,13.15-9,43.95,43.95,0,0,1,33.61,0,38.72,38.72,0,0,1,13.15,9,41,41,0,0,1,8.35,13.25,43.3,43.3,0,0,1-1,34.24,39.92,39.92,0,0,1-11.27,14.3l4.69,4.49q8.25,7.51,16.29,7.41a16.56,16.56,0,0,0,5.64-.84v13.47a20.86,20.86,0,0,1-8.25,1.36q-12.63,0-24.32-10.23l-9.29-8.35a43.78,43.78,0,0,1-27.56-2,40.8,40.8,0,0,1-13.15-8.87A41.59,41.59,0,0,1,454.8,211.69Zm20.35-34.86a27,27,0,0,0-7.2,18.89,26.45,26.45,0,0,0,7.2,18.89,23.6,23.6,0,0,0,18.06,7.62,24.19,24.19,0,0,0,12.84-3.44,23.94,23.94,0,0,0,9-9.61,28.15,28.15,0,0,0,3.23-13.46,26.44,26.44,0,0,0-7.2-18.89,25.08,25.08,0,0,0-36,0Zm74.11,27.45V156.57h15.87v49q0,7.83,4.18,12.32t11.58,4.38q7.3,0,11.48-4.38t4.18-12.32v-49h15.87v47.71q0,15.45-8.46,24.11t-23.17,8.66q-14.61,0-23.07-8.66T549.26,204.28Zm83.82,30.58V156.57h45.41v13.57H648.85V188.2H674v13.57H648.85v19.52h29.64v13.57ZM0,348.12V269.83H45.41V283.4H15.87v18.06H41V315H15.87v33.09Zm60.44,0V269.83h23.8q12.84,0,20.35,6.26T112,293.21a22.79,22.79,0,0,1-3.23,12.22,21.23,21.23,0,0,1-9.19,8L124,348.12h-18.9L84.34,316.49h-8v31.63ZM76.3,303h8.88q5,0,7.83-2.61c1.87-1.74,2.78-4.21,2.71-7.41A9.4,9.4,0,0,0,93,285.91q-2.72-2.61-7.83-2.51H76.3Zm52.2,45.1L158,269.83H178.7l29.54,78.29h-16.8l-7.52-20.36H152.71l-7.41,20.36Zm29.12-33.93h21.5l-10.75-29.33Zm63.78,33.93V269.83h20.25l34.86,56.05V269.83h15.76v78.29H272l-34.86-56.26v56.26ZM308.66,309a42,42,0,0,1,3-15.86A41.33,41.33,0,0,1,320,279.85,38.83,38.83,0,0,1,333.19,271a42.6,42.6,0,0,1,16.91-3.34,41.91,41.91,0,0,1,18.79,4.17,38.28,38.28,0,0,1,14,11.69l-12.42,9.71a26,26,0,0,0-8.67-7.83,25.08,25.08,0,0,0-29.75,4.7A28.52,28.52,0,0,0,332,328a23.27,23.27,0,0,0,18.06,7.52,24.18,24.18,0,0,0,11.69-2.82,25.6,25.6,0,0,0,8.67-7.93l12.42,9.6a37.67,37.67,0,0,1-11.48,10.44,39.2,39.2,0,0,1-15.24,5.11l-9.71,16.29h-14l9.81-16.5a40.59,40.59,0,0,1-17.64-7.62,39.39,39.39,0,0,1-11.9-14.51A41.24,41.24,0,0,1,308.66,309Zm78.81,39.15L417,269.83h20.67l29.54,78.29H450.41L443,327.76H411.79l-7.51,20.36Zm29.23-33.93h21.4l-10.76-29.33Zm63.67,33.93V269.83h15.87v78.29Zm31.73-10.86,11.49-10.54a27,27,0,0,0,7.93,7.1,18.81,18.81,0,0,0,9.29,2.5q4.7,0,7.31-2.4a8.45,8.45,0,0,0,2.71-6.68,7.85,7.85,0,0,0-1.46-4.59,12.51,12.51,0,0,0-4.07-3.45c-1.67-1-3.59-1.94-5.74-2.92s-4.35-2-6.58-3a40.94,40.94,0,0,1-6.47-3.55,34.4,34.4,0,0,1-5.74-4.59,18.82,18.82,0,0,1-4.07-6.37,22.14,22.14,0,0,1-1.57-8.45,21.11,21.11,0,0,1,7.1-16.08q7.1-6.57,17.95-6.57,16.29,0,27.25,13.15l-11.59,10.44q-7.51-9.81-15.55-9.81a9.34,9.34,0,0,0-6.58,2.4,7.31,7.31,0,0,0-2.5,5.84,7.15,7.15,0,0,0,1.25,4.07,14,14,0,0,0,3.23,3.24,50.4,50.4,0,0,0,4.81,2.71l5.53,2.61c2,.91,4,1.81,6,2.72a28.88,28.88,0,0,1,5.63,3.55,25.22,25.22,0,0,1,4.81,4.59,18,18,0,0,1,3.23,6,23.26,23.26,0,0,1,1.25,7.83q-.2,10.65-7.62,17T541,350.31a39.2,39.2,0,0,1-16.6-3.24A35.84,35.84,0,0,1,512.1,337.26Zm72.45,10.86V269.83H630V283.4H600.41v18.06h25.16V315H600.41v19.52H630v13.57Z"/><path class="d" d="M259.29,562.73c2.29,0,4.28,1.77,3.23,5.84L252,571.39c1.67-5,4.8-8.66,7.31-8.66m5.84,17.12h-2.08c-2.61,3.13-5.54,5.63-8.36,5.63s-4.38-1.77-4.38-5.63a23.33,23.33,0,0,1,.52-4.7L268,569.51c3.34-7.93-.73-11.37-5.43-11.37-8.14,0-17.32,14.19-17.32,25.36,0,5.33,2.5,8.25,6.47,8.25,4.69,0,9.5-4.49,13.46-11.9m-2.71-25.47,9.71-8.87v-1.26h-6.47l-5.75,10.23h2.51ZM226,562.94h5.64l-9,24.63c-.84,2.09.31,4.18,2.5,4.18,6.37,0,14-5.43,16.91-13.15H240.5c-2.3,3.23-7.31,6.78-11.07,7.51l8.25-23.17h8.46l1-3.55h-8.25l3.13-8.87h-3.23L233,559.39l-7,.94Zm-5.85-1.25c.73-2.3-.83-3.55-2-3.55-4.91,0-10.86,4.49-13.15,10.64h1.56c1.57-2.29,4.28-4.8,6.89-5.22L204,588.2a2.44,2.44,0,0,0,2.09,3.55c4.7,0,10.23-4.49,12.53-10.65H217c-1.56,2.3-4.28,4.8-6.89,5.22Zm.94-9.82a3.86,3.86,0,1,0,0-7.72,3.86,3.86,0,0,0,0,7.72M175.26,565c1.46,0,2.3,2.29,0,7.41l-6.68,14.82c-1.25,2.82.1,4.59,2.82,4.59,1.67,0,2.4-.42,3.13-2.19l6.57-17.33c3-3.76,8.67-7.72,11.17-7.72,1.78,0,1.57,1.46.42,3.76l-10.12,19.31a2.84,2.84,0,0,0,2.5,4.17c4.91,0,10.86-4.49,13.15-10.64h-1.77c-1.57,2.29-4.28,4.8-6.89,5.21l8.66-17.53a13.23,13.23,0,0,0,1.67-5.95c0-2.82-1.56-4.7-4.59-4.7-4.28,0-7.93,4.8-13.15,10.75V564.4c0-3.24-1.05-6.16-4-6.16-3.44,0-6.57,5.43-9.08,10.65h1.57c1.77-2.51,3.34-3.86,4.59-3.86m-6.79.62c1.15-4.07.53-7.51-2.5-7.51-3.86,0-5.12,2.61-8.87,10.75V564.3c0-3.24-1-6.16-4-6.16-3.44,0-6.58,5.42-9.08,10.64h1.56c1.67-2.4,3.24-3.86,4.49-3.86,1.46,0,2.3,2.3,0,7.41l-6.68,14.83c-1.25,2.81.11,4.59,2.82,4.59,1.67,0,2.4-.42,3.13-2.19l6.37-17.33c1.88-2.3,3.55-4.28,5.64-6.47h7.09ZM132,562.73c2.3,0,4.28,1.77,3.24,5.84l-10.54,2.82c1.77-5,4.8-8.66,7.3-8.66m5.85,17.12H135.8c-2.61,3.13-5.53,5.63-8.35,5.63s-4.38-1.77-4.38-5.63a23.33,23.33,0,0,1,.52-4.7l17.12-5.64c3.34-7.93-.63-11.37-5.43-11.37-8.14,0-17.33,14.19-17.33,25.36,0,5.33,2.51,8.25,6.47,8.25,4.7,0,9.5-4.49,13.47-11.9M98.75,562.94h5.63l-9,24.63c-.84,2.09.31,4.18,2.5,4.18,6.37,0,14.09-5.43,16.91-13.15h-1.56c-2.3,3.23-7.31,6.78-11.07,7.51l8.25-23.17h8.45l1-3.55h-8.25l3.13-8.87h-3.23l-5.85,8.87-7,.94Zm-30,19.2c0-7.62,8.45-17.95,13.26-17.95a8.7,8.7,0,0,1,2.92.42l-4.91,13.15c-2.82,3.45-7.2,7.62-9.29,7.62-1.25,0-2-.94-2-3.24m26-25.46-2.61-.21-2.92,2.92h-.52c-12.43,0-25.79,15.45-25.79,27.66,0,2.82,1.57,4.7,4.6,4.7,3.65,0,7.2-5.22,11.27-10.75l-.21,2c-.52,5.64,1.25,8.77,4.18,8.77,3.44,0,6.57-5.43,9-10.65H90.19C88.52,583.5,87,585,85.7,585s-2.19-2.4,0-7.41Zm-26.62,9c1.15-4.07.52-7.51-2.5-7.51-3.87,0-5.12,2.61-8.88,10.75V564.3c0-3.24-1-6.16-4.07-6.16-3.44,0-6.57,5.42-9,10.64H45.3c1.67-2.4,3.24-3.86,4.49-3.86,1.46,0,2.3,2.3,0,7.41L43,587.26c-1.26,2.82.1,4.59,2.81,4.59,1.67,0,2.41-.42,3.14-2.19l6.57-17.43c1.88-2.3,3.55-4.28,5.64-6.47h7Zm-43.73,25,.62-1.88c-8.24-1.56-9.29-1.56-5.95-10.54l3.13-8.46h6.58c4.07,0,4.18,1.78,3.55,6.27h2.4l5.43-14.93h-2.4c-2.09,3.55-3.66,6.26-8.15,6.26H23.07l4.49-12.21c1.56-4.38,2.29-5.22,7.93-5.22H37c5.74,0,6.47,1.57,6.47,7.62h2.3l1.88-10.12H15.76l-.62,1.87c6.57,1.36,7.2,2,4.17,10.55l-6.78,18.47c-3.14,8.46-4.39,9.19-12,10.55L0,590.7H24.43Zm157.93-99.79c2.29,0,4.28,1.77,3.23,5.84l-10.54,2.82c1.67-5,4.8-8.66,7.31-8.66m5.84,17.12h-2.08c-2.61,3.13-5.54,5.64-8.36,5.64s-4.38-1.78-4.38-5.64a23.33,23.33,0,0,1,.52-4.7L191,497.59c3.34-7.93-.73-11.37-5.43-11.37-8.14,0-17.32,14.19-17.32,25.36,0,5.33,2.5,8.25,6.47,8.25,4.69.1,9.5-4.49,13.46-11.9m-2.71-25.47,9.71-8.87v-1.26h-6.48L183,482.56h2.51ZM149.06,491h5.64l-9,24.63c-.84,2.09.31,4.18,2.5,4.18,6.37,0,14-5.43,16.91-13.15h-1.56c-2.3,3.23-7.31,6.78-11.07,7.51L160.75,491h8.46l1-3.55H162l3.13-8.87H161.9l-5.85,8.87-7,1Zm-5.85-1.15c.73-2.3-.83-3.55-2.08-3.55-4.91,0-10.86,4.49-13.16,10.65h1.57c1.57-2.3,4.28-4.8,6.89-5.22l-9.5,24.63a2.43,2.43,0,0,0,2.09,3.55c4.69,0,10.23-4.49,12.52-10.64H140c-1.57,2.29-4.28,4.8-6.89,5.21Zm.94-9.81a3.87,3.87,0,1,0,0-7.73,4,4,0,0,0-3.34,1.88,3.87,3.87,0,0,0,0,4,3.77,3.77,0,0,0,3.34,1.88M113.88,514.5,129.54,473l-.52-.73-10.86,1.25v1.25l2.09,1.57c1.88,1.46,1.25,2.82-.42,7.52l-11.9,31.73a2.81,2.81,0,0,0,2.51,4.17c4.9,0,10.23-4.48,12.52-10.64H121.4c-1.67,2.4-5,4.9-7.52,5.42m-31.94-4.28c0-7.62,8.46-18,13.26-18a9.09,9.09,0,0,1,2.92.42l-5,13.15c-2.82,3.45-7.2,7.62-9.29,7.62-1.15.11-1.88-.94-1.88-3.24m26-25.36-2.61-.21-2.92,2.92h-.52c-12.42,0-25.78,15.45-25.78,27.67,0,2.81,1.56,4.69,4.59,4.69,3.65,0,7.2-5.22,11.27-10.75l-.21,2c-.52,5.64,1.26,8.77,4.18,8.77,3.44,0,6.57-5.43,9-10.64h-1.57c-1.67,2.4-3.24,3.86-4.49,3.86s-2.19-2.4,0-7.31Zm-60.44,41c0-3.23,3.14-5.32,7.62-7.1a53,53,0,0,0,6.68,2.51c4.7,1.57,6.48,2.19,6.48,3.55,0,3-4.28,5.32-12.11,5.32-5.85.11-8.67-1.15-8.67-4.28M60.33,506c-2.08,0-2.81-1.78-2.81-3.76,0-6.16,2.92-13.57,7.62-13.57,2.08,0,2.81,1.77,2.81,3.76,0,6.05-3,13.57-7.62,13.57m13.36,16.91c0-4-3.54-5.43-9.29-7.1-4.9-1.46-7.2-1.88-7.2-3.55,0-1.25,1-2.82,3.13-4,8.15-.42,13.26-7.72,13.26-14.19a10,10,0,0,0-.52-3.14H78.6l1-3.55H70.25a8.21,8.21,0,0,0-4.59-1.25c-8.56,0-14.09,7.52-14.09,14.2,0,4.28,2.5,7.2,6.47,7.72-4,1.88-6.27,3.86-6.27,6.37a4,4,0,0,0,1.78,3.44C44.36,520.56,40.61,524,40.61,528c0,4.28,5.63,6,12.31,6,11.28.11,20.77-6,20.77-11.16M31.11,497.8c4.07,0,4.17,1.78,3.55,6.27h2.4l5.42-14.93h-2.4c-2.08,3.55-3.65,6.26-8.14,6.26H22.86l4.49-12.21c1.56-4.38,2.4-5.22,7.93-5.22h4c5.74,0,6.47,1.57,6.47,7.62H48l1.88-10.12H15.76l-.62,1.87c6.57,1.36,7.2,2,4.17,10.55l-6.78,18.47c-3.14,8.46-4.39,9.19-12,10.55L0,518.78H38L44.78,508H42.17c-4.38,4.39-8.87,8.25-17.33,8.25-10.12,0-9.18-.52-5.84-9.92l3.13-8.45h9ZM36,472.33l9.71-7.09V464H39.25l-5.74,8.35ZM181.1,419c2.3,0,4.28,1.78,3.24,5.85l-10.54,2.82c1.67-5.12,4.8-8.67,7.3-8.67M187,436.11h-2.09c-2.61,3.13-5.53,5.64-8.35,5.64s-4.38-1.78-4.38-5.64a23.31,23.31,0,0,1,.52-4.69l17.12-5.64c3.34-7.93-.73-11.38-5.43-11.38-8.14,0-17.33,14.2-17.33,25.37,0,5.32,2.51,8.24,6.47,8.24,4.7,0,9.5-4.49,13.47-11.9m-2.71-25.47,9.7-8.87v-1.25h-6.47l-5.74,10.23h2.51Zm-36.43,8.46h5.74l-9,24.63c-.83,2.09.31,4.18,2.51,4.18,6.36,0,14.09-5.43,16.91-13.15h-1.57c-2.3,3.23-7.31,6.78-11.06,7.51l8.24-23.17h8.46l1-3.55h-8.25l3.14-8.87h-3.24l-5.85,8.87-7,.94v2.61Zm-2.93,2.82c1.15-4.07.53-7.52-2.5-7.52-3.86,0-5.12,2.61-8.87,10.75v-4.59c0-3.24-1-6.16-4-6.16-3.45,0-6.58,5.43-9.08,10.65H122c1.67-2.4,3.24-3.86,4.49-3.86,1.46,0,2.3,2.29,0,7.41l-6.68,14.82c-1.25,2.82.11,4.59,2.82,4.59,1.67,0,2.4-.42,3.13-2.19l6.58-17.33c1.88-2.29,3.55-4.28,5.63-6.47h6.89ZM108.45,419c2.3,0,4.28,1.78,3.24,5.85l-10.54,2.82c1.67-5.12,4.8-8.67,7.3-8.67m5.85,17.12h-2.09c-2.61,3.13-5.53,5.64-8.35,5.64s-4.38-1.78-4.38-5.64a23.31,23.31,0,0,1,.52-4.69l17.12-5.64c3.34-7.93-.63-11.38-5.43-11.38-8.14,0-17.33,14.2-17.33,25.37,0,5.32,2.51,8.24,6.47,8.24,4.7,0,9.5-4.49,13.47-11.9M74.43,443c-1.67,0-4.08-1.56-4.08-2.92a32.6,32.6,0,0,1,1.67-4.8L74.74,428c2.92-3.55,7.51-7.41,10.12-7.41,1.57,0,2.72,1,2.72,3.24-.11,6.88-6.37,19.2-13.15,19.2m19-21.81c0-5-1.25-6.89-4.8-6.89-4.38,0-8.45,4.69-12.63,10.33L84.76,401l-.52-.73-10.86,1.25v1.25l2.09,1.57c1.88,1.46,1.25,2.92-.42,7.52l-9.5,24.94a30.68,30.68,0,0,0-1.77,5.22c0,2.93,4,5.74,7.62,5.74,8.24.21,22-14.92,22-26.61m-32-3.24c.62-2.3-.84-3.55-2.09-3.55-4.91,0-10.86,4.49-13.15,10.65H47.7c1.57-2.3,4.28-4.8,6.89-5.22l-9.5,24.63A2.44,2.44,0,0,0,47.18,448c4.7,0,10.23-4.49,12.53-10.64H58.14c-1.56,2.29-4.28,4.8-6.89,5.21Zm1-9.81a3.87,3.87,0,0,0,0-7.73,4,4,0,0,0-3.34,1.88,3.87,3.87,0,0,0,0,4,3.76,3.76,0,0,0,3.34,1.88m-24.11-4.7H15.76l-.62,1.88c6.57,1.36,7.2,2,4.17,10.54l-6.78,18.48c-3.14,8.45-4.39,9.18-12,10.54L0,446.76H34.24l7.41-13.26H39c-4.28,4.7-9.19,10.65-16.81,10.65-5.74,0-6.57-1-3.34-9.92l6.79-18.47c3.13-8.46,4.38-9.19,12-10.54Z"/></svg>